<svg width="41" height="43" viewBox="0 0 41 43" fill="none" xmlns="http://www.w3.org/2000/svg">
<path d="M36.4444 7.16663H4.55555C3.95144 7.16663 3.37208 7.41831 2.94492 7.86632C2.51775 8.31432 2.27777 8.92194 2.27777 9.55551V33.4444C2.27777 34.078 2.51775 34.6856 2.94492 35.1336C3.37208 35.5816 3.95144 35.8333 4.55555 35.8333H36.4444C37.0485 35.8333 37.6279 35.5816 38.0551 35.1336C38.4822 34.6856 38.7222 34.078 38.7222 33.4444V9.55551C38.7222 8.92194 38.4822 8.31432 38.0551 7.86632C37.6279 7.41831 37.0485 7.16663 36.4444 7.16663V7.16663ZM34.6905 33.4444H6.4461L14.4183 24.7966L12.7783 23.1363L4.55555 32.0588V11.3711L18.7119 26.1463C19.1387 26.5913 19.716 26.841 20.3178 26.841C20.9195 26.841 21.4968 26.5913 21.9236 26.1463L36.4444 11.0008V31.9036L28.0622 23.1125L26.4564 24.7966L34.6905 33.4444ZM6.04749 9.55551H34.5994L20.3178 24.4502L6.04749 9.55551Z" fill="#9A4A53"/>
</svg>
