<svg width="38" height="41" viewBox="0 0 38 41" fill="none" xmlns="http://www.w3.org/2000/svg">
<path d="M19 2.5625C15.5369 2.56691 12.2168 4.0532 9.76794 6.69533C7.31913 9.33747 5.9416 12.9197 5.93751 16.6562C5.93337 19.7098 6.8578 22.6804 8.56901 25.1125C8.56901 25.1125 8.92526 25.6186 8.98345 25.6916L19 38.4375L29.0213 25.6852C29.0736 25.6173 29.431 25.1125 29.431 25.1125L29.4322 25.1087C31.1426 22.6776 32.0666 19.7084 32.0625 16.6562C32.0584 12.9197 30.6809 9.33747 28.2321 6.69533C25.7833 4.0532 22.4631 2.56691 19 2.5625V2.5625ZM19 21.7812C18.0606 21.7812 17.1422 21.4807 16.3611 20.9175C15.5799 20.3544 14.9711 19.554 14.6116 18.6175C14.2521 17.681 14.158 16.6506 14.3413 15.6564C14.5246 14.6623 14.977 13.7491 15.6413 13.0323C16.3056 12.3156 17.1519 11.8275 18.0733 11.6297C18.9947 11.432 19.9498 11.5335 20.8178 11.9214C21.6857 12.3093 22.4276 12.9662 22.9495 13.809C23.4714 14.6518 23.75 15.6426 23.75 16.6562C23.7484 18.015 23.2475 19.3175 22.357 20.2783C21.4666 21.2391 20.2593 21.7796 19 21.7812V21.7812Z" fill="#9A4A53"/>
</svg>
