<svg width="37" height="37" viewBox="0 0 37 37" fill="none" xmlns="http://www.w3.org/2000/svg">
<g clip-path="url(#clip0_164_9)">
<path fill-rule="evenodd" clip-rule="evenodd" d="M26.8481 22.1723C26.3887 21.9426 24.1363 20.8357 23.717 20.6815C23.2977 20.5289 22.9924 20.4534 22.6856 20.9128C22.3804 21.3691 21.5032 22.402 21.2365 22.7073C20.9682 23.0141 20.7015 23.0511 20.2436 22.8229C19.7858 22.5916 18.3088 22.1091 16.559 20.5489C15.1978 19.3341 14.2774 17.8341 14.0107 17.3746C13.744 16.9168 13.9814 16.6686 14.2111 16.4404C14.4177 16.2354 14.669 15.9054 14.8987 15.6387C15.1284 15.3705 15.2039 15.1793 15.3565 14.8725C15.5107 14.5673 15.4336 14.3006 15.318 14.0709C15.2039 13.8411 14.2882 11.5857 13.9058 10.6684C13.5343 9.77577 13.1566 9.89756 12.876 9.88215C12.6078 9.86981 12.3025 9.86673 11.9973 9.86673C11.692 9.86673 11.1956 9.98081 10.7763 10.4402C10.3554 10.8981 9.17292 12.0066 9.17292 14.262C9.17292 16.5159 10.8133 18.6943 11.043 19.0011C11.2727 19.3064 14.2728 23.9344 18.8685 25.9186C19.963 26.3903 20.8156 26.6724 21.48 26.8821C22.5777 27.2321 23.5767 27.1827 24.366 27.064C25.2448 26.933 27.0763 25.9556 27.4586 24.8856C27.8394 23.8157 27.8394 22.8984 27.7253 22.7073C27.6113 22.5161 27.306 22.402 26.8466 22.1723H26.8481ZM18.4892 33.5853H18.483C15.7534 33.5858 13.0739 32.852 10.7254 31.4609L10.1704 31.1309L4.40146 32.6449L5.94158 27.0209L5.57929 26.4443C4.05325 24.0151 3.24566 21.2038 3.24983 18.3351C3.25292 9.93302 10.0887 3.09727 18.4954 3.09727C22.5654 3.09727 26.3918 4.68519 29.2685 7.56502C30.6875 8.97808 31.8121 10.6585 32.5774 12.509C33.3427 14.3595 33.7334 16.3434 33.727 18.3459C33.724 26.748 26.8882 33.5853 18.4892 33.5853V33.5853ZM31.4577 5.3774C29.7591 3.66757 27.738 2.31185 25.5116 1.3888C23.2852 0.465745 20.8978 -0.00628421 18.4877 6.31737e-05C8.38358 6.31737e-05 0.15725 8.22485 0.154167 18.3336C0.149485 21.5506 0.993411 24.712 2.60079 27.4988L0 37.0001L9.71867 34.4501C12.4071 35.9149 15.4199 36.6824 18.4815 36.6825H18.4892C28.5933 36.6825 36.8196 28.4577 36.8227 18.3474C36.8302 15.9382 36.3598 13.5515 35.439 11.3252C34.5181 9.09893 33.1649 7.07735 31.4577 5.3774" fill="#9A4A53"/>
</g>
<defs>
<clipPath id="clip0_164_9">
<rect width="37" height="37" fill="white"/>
</clipPath>
</defs>
</svg>
