<svg width="518" height="150" viewBox="0 0 518 150" fill="none" xmlns="http://www.w3.org/2000/svg">
<path d="M18.0583 66.2675C14.9983 66.2675 12.1933 65.5025 9.64325 63.9725C7.14992 62.3858 5.13825 60.3175 3.60825 57.7675C2.13492 55.1608 1.39825 52.2991 1.39825 49.1825V45.2725C1.39825 44.9891 1.53992 44.8475 1.82325 44.8475H11.3433C11.5699 44.8475 11.6833 44.9891 11.6833 45.2725V49.1825C11.6833 51.0525 12.3066 52.6675 13.5533 54.0275C14.7999 55.3308 16.3016 55.9825 18.0583 55.9825C19.8149 55.9825 21.3166 55.3025 22.5633 53.9425C23.8099 52.5825 24.4333 50.9958 24.4333 49.1825C24.4333 47.0858 23.0733 45.2725 20.3533 43.7425C19.4466 43.2325 18.0299 42.4391 16.1033 41.3625C14.1766 40.2858 12.3633 39.2658 10.6633 38.3025C7.54659 36.4891 5.22325 34.2225 3.69325 31.5025C2.21992 28.7258 1.48325 25.6091 1.48325 22.1525C1.48325 18.9791 2.24825 16.1458 3.77825 13.6525C5.30825 11.1025 7.31992 9.09081 9.81325 7.61748C12.3633 6.14415 15.1116 5.40748 18.0583 5.40748C21.0616 5.40748 23.8099 6.17248 26.3033 7.70248C28.8533 9.17581 30.8649 11.1875 32.3383 13.7375C33.8683 16.2308 34.6333 19.0358 34.6333 22.1525V29.1225C34.6333 29.3491 34.5199 29.4625 34.2933 29.4625H24.7733C24.5466 29.4625 24.4333 29.3491 24.4333 29.1225L24.3483 22.1525C24.3483 20.1691 23.7249 18.5541 22.4783 17.3075C21.2316 16.0608 19.7583 15.4375 18.0583 15.4375C16.3016 15.4375 14.7999 16.1175 13.5533 17.4775C12.3066 18.7808 11.6833 20.3391 11.6833 22.1525C11.6833 24.0225 12.0799 25.5808 12.8733 26.8275C13.6666 28.0741 15.1116 29.2641 17.2083 30.3975C17.4916 30.5675 18.0299 30.8791 18.8233 31.3325C19.6733 31.7291 20.5799 32.2108 21.5433 32.7775C22.5066 33.2875 23.3566 33.7408 24.0933 34.1375C24.8866 34.5341 25.3683 34.7891 25.5383 34.9025C28.3716 36.4891 30.6099 38.4441 32.2533 40.7675C33.8966 43.0341 34.7183 45.8391 34.7183 49.1825C34.7183 52.4125 33.9533 55.3308 32.4233 57.9375C30.9499 60.4875 28.9383 62.5275 26.3883 64.0575C23.8949 65.5308 21.1183 66.2675 18.0583 66.2675ZM69.8697 21.5575C69.3597 19.0641 68.3964 17.3075 66.9797 16.2875C65.6197 15.2108 63.8064 14.6725 61.5397 14.6725C59.3297 14.6725 57.4314 15.2391 55.8447 16.3725C54.3147 17.4491 53.5497 19.3191 53.5497 21.9825C53.5497 24.5891 54.6264 26.7991 56.7797 28.6125C58.9331 30.4258 62.4464 32.0125 67.3197 33.3725L66.6397 39.0675L62.9847 39.4925C59.5847 39.8891 56.8364 41.0225 54.7397 42.8925C52.6997 44.7625 51.6797 47.3125 51.6797 50.5425C51.6797 53.7158 52.6147 56.0391 54.4847 57.5125C56.3547 58.9858 58.7064 59.7225 61.5397 59.7225C66.0731 59.7225 69.3314 58.0791 71.3147 54.7925V33.3725H78.2847L85.8497 32.9475L85.0847 38.3025L78.4547 39.3225V54.2825C78.4547 56.2091 78.9081 57.6825 79.8147 58.7025C80.7214 59.6658 81.9964 60.1475 83.6397 60.1475C85.2831 60.1475 86.8697 59.8641 88.3997 59.2975L90.5247 63.8875C88.2581 65.5875 85.2547 66.4375 81.5147 66.4375C79.4747 66.4375 77.6614 65.9558 76.0747 64.9925C74.5447 63.9725 73.5814 62.6408 73.1847 60.9975H72.8447C70.0114 64.6241 65.6764 66.4375 59.8397 66.4375C55.1364 66.4375 51.2547 65.2191 48.1947 62.7825C45.1914 60.2891 43.6897 56.7191 43.6897 52.0725C43.6897 47.4258 44.8797 43.8558 47.2597 41.3625C49.6397 38.8691 52.5864 37.0841 56.0997 36.0075V35.6675C49.3564 33.1741 45.9847 28.8391 45.9847 22.6625C45.9847 18.4125 47.4297 14.9558 50.3197 12.2925C53.2664 9.62914 57.1481 8.29748 61.9647 8.29748C66.7814 8.29748 70.4081 9.28914 72.8447 11.2725C75.2814 13.2558 76.7547 16.2591 77.2647 20.2825L69.8697 21.5575ZM109.201 65.4175C108.974 65.4175 108.861 65.2758 108.861 64.9925V16.5425H97.8108C97.5275 16.5425 97.3858 16.4008 97.3858 16.1175L97.4708 6.59748C97.4708 6.37081 97.5842 6.25748 97.8108 6.25748H130.111C130.394 6.25748 130.536 6.37081 130.536 6.59748V16.1175C130.536 16.4008 130.422 16.5425 130.196 16.5425H119.061L119.146 64.9925C119.146 65.2758 119.032 65.4175 118.806 65.4175H109.201ZM4.03325 138.417C3.74992 138.417 3.60825 138.276 3.60825 137.992L3.77825 79.5975C3.77825 79.3708 3.89159 79.2575 4.11825 79.2575L20.0133 79.1725C23.1299 79.1158 25.9633 79.8525 28.5133 81.3825C31.1199 82.9125 33.1883 84.9808 34.7183 87.5875C36.2483 90.1375 37.0133 92.9708 37.0133 96.0875V120.482C37.0133 123.769 36.2199 126.772 34.6333 129.492C33.0466 132.156 30.9216 134.281 28.2583 135.867C25.5949 137.454 22.5916 138.276 19.2483 138.332L4.03325 138.417ZM13.9783 127.962H19.2483C21.3449 127.962 23.1016 127.226 24.5183 125.752C25.9916 124.279 26.7283 122.522 26.7283 120.482V96.0025C26.7283 94.1891 26.0483 92.6308 24.6883 91.3275C23.3849 89.9675 21.8266 89.3158 20.0133 89.3725L14.0633 89.4575L13.9783 127.962ZM47.101 138.417C46.8177 138.417 46.676 138.276 46.676 137.992L46.761 79.5975C46.761 79.3708 46.8744 79.2575 47.101 79.2575H56.621C56.8477 79.2575 56.961 79.3708 56.961 79.5975L57.046 137.992C57.046 138.276 56.9327 138.417 56.706 138.417H47.101ZM81.9477 139.267C78.8877 139.267 76.0827 138.502 73.5327 136.972C71.0394 135.386 69.0277 133.317 67.4977 130.767C66.0244 128.161 65.2877 125.299 65.2877 122.182V118.272C65.2877 117.989 65.4294 117.847 65.7127 117.847H75.2327C75.4594 117.847 75.5727 117.989 75.5727 118.272V122.182C75.5727 124.052 76.196 125.667 77.4427 127.027C78.6894 128.331 80.191 128.982 81.9477 128.982C83.7044 128.982 85.206 128.302 86.4527 126.942C87.6994 125.582 88.3227 123.996 88.3227 122.182C88.3227 120.086 86.9627 118.272 84.2427 116.742C83.336 116.232 81.9194 115.439 79.9927 114.362C78.066 113.286 76.2527 112.266 74.5527 111.302C71.436 109.489 69.1127 107.222 67.5827 104.502C66.1094 101.726 65.3727 98.6091 65.3727 95.1525C65.3727 91.9791 66.1377 89.1458 67.6677 86.6525C69.1977 84.1025 71.2094 82.0908 73.7027 80.6175C76.2527 79.1441 79.001 78.4075 81.9477 78.4075C84.951 78.4075 87.6994 79.1725 90.1927 80.7025C92.7427 82.1758 94.7544 84.1875 96.2277 86.7375C97.7577 89.2308 98.5227 92.0358 98.5227 95.1525V102.122C98.5227 102.349 98.4094 102.462 98.1827 102.462H88.6627C88.436 102.462 88.3227 102.349 88.3227 102.122L88.2377 95.1525C88.2377 93.1691 87.6144 91.5541 86.3677 90.3075C85.121 89.0608 83.6477 88.4375 81.9477 88.4375C80.191 88.4375 78.6894 89.1175 77.4427 90.4775C76.196 91.7808 75.5727 93.3391 75.5727 95.1525C75.5727 97.0225 75.9694 98.5808 76.7627 99.8275C77.556 101.074 79.001 102.264 81.0977 103.397C81.381 103.567 81.9194 103.879 82.7127 104.332C83.5627 104.729 84.4694 105.211 85.4327 105.777C86.396 106.287 87.246 106.741 87.9827 107.137C88.776 107.534 89.2577 107.789 89.4277 107.902C92.261 109.489 94.4994 111.444 96.1427 113.767C97.786 116.034 98.6077 118.839 98.6077 122.182C98.6077 125.412 97.8427 128.331 96.3127 130.937C94.8394 133.487 92.8277 135.527 90.2777 137.057C87.7844 138.531 85.0077 139.267 81.9477 139.267ZM115.579 138.417C115.352 138.417 115.239 138.276 115.239 137.992V89.5425H104.189C103.906 89.5425 103.764 89.4008 103.764 89.1175L103.849 79.5975C103.849 79.3708 103.962 79.2575 104.189 79.2575H136.489C136.772 79.2575 136.914 79.3708 136.914 79.5975V89.1175C136.914 89.4008 136.801 89.5425 136.574 89.5425H125.439L125.524 137.992C125.524 138.276 125.411 138.417 125.184 138.417H115.579ZM144.427 138.417C144.201 138.417 144.087 138.276 144.087 137.992L144.257 79.5975C144.257 79.3708 144.371 79.2575 144.597 79.2575H161.767C164.827 79.2575 167.632 80.0225 170.182 81.5525C172.789 83.0258 174.857 85.0375 176.387 87.5875C177.917 90.0808 178.682 92.9141 178.682 96.0875C178.682 98.1841 178.371 100.082 177.747 101.782C177.124 103.426 176.387 104.842 175.537 106.032C174.687 107.166 173.922 108.016 173.242 108.582C176.302 111.982 177.832 115.977 177.832 120.567L177.917 137.992C177.917 138.276 177.776 138.417 177.492 138.417H167.887C167.661 138.417 167.547 138.332 167.547 138.162V120.567C167.547 118.527 166.811 116.771 165.337 115.297C163.921 113.767 162.164 113.002 160.067 113.002H154.457L154.372 137.992C154.372 138.276 154.259 138.417 154.032 138.417H144.427ZM154.457 102.802H161.767C163.524 102.802 165.082 102.151 166.442 100.847C167.802 99.5441 168.482 97.9575 168.482 96.0875C168.482 94.2741 167.802 92.7158 166.442 91.4125C165.139 90.1091 163.581 89.4575 161.767 89.4575H154.457V102.802ZM188.493 138.417C188.21 138.417 188.068 138.276 188.068 137.992L188.153 79.5975C188.153 79.3708 188.267 79.2575 188.493 79.2575H198.013C198.24 79.2575 198.353 79.3708 198.353 79.5975L198.438 137.992C198.438 138.276 198.325 138.417 198.098 138.417H188.493ZM209.23 138.417C209.003 138.417 208.89 138.276 208.89 137.992L209.06 79.5975C209.06 79.3708 209.173 79.2575 209.4 79.2575H225.72C228.95 79.2575 231.84 80.0508 234.39 81.6375C236.94 83.1675 238.952 85.2075 240.425 87.7575C241.898 90.3075 242.635 93.0841 242.635 96.0875C242.635 98.5241 242.068 100.791 240.935 102.887C239.858 104.984 238.555 106.684 237.025 107.987C238.668 109.631 239.943 111.529 240.85 113.682C241.757 115.836 242.21 118.102 242.21 120.482C242.21 123.769 241.417 126.772 239.83 129.492C238.243 132.212 236.09 134.394 233.37 136.037C230.707 137.624 227.732 138.417 224.445 138.417H209.23ZM219.26 102.717H225.72C227.703 102.717 229.29 102.037 230.48 100.677C231.727 99.2608 232.35 97.7308 232.35 96.0875C232.35 94.2741 231.698 92.7158 230.395 91.4125C229.092 90.0525 227.533 89.3725 225.72 89.3725H219.26V102.717ZM219.175 128.047H224.445C226.485 128.047 228.242 127.311 229.715 125.837C231.188 124.307 231.925 122.522 231.925 120.482C231.925 118.442 231.188 116.686 229.715 115.212C228.242 113.739 226.485 113.002 224.445 113.002H219.26L219.175 128.047ZM266.934 139.267C263.93 139.267 261.154 138.502 258.604 136.972C256.054 135.386 254.014 133.289 252.484 130.682C251.01 128.076 250.274 125.214 250.274 122.097L250.444 79.5975C250.444 79.3708 250.557 79.2575 250.784 79.2575H260.304C260.53 79.2575 260.644 79.3708 260.644 79.5975V122.097C260.644 124.024 261.239 125.667 262.429 127.027C263.675 128.331 265.177 128.982 266.934 128.982C268.747 128.982 270.249 128.331 271.439 127.027C272.685 125.667 273.309 124.024 273.309 122.097V79.5975C273.309 79.3708 273.422 79.2575 273.649 79.2575H283.169C283.395 79.2575 283.509 79.3708 283.509 79.5975L283.679 122.097C283.679 125.271 282.914 128.161 281.384 130.767C279.91 133.374 277.899 135.442 275.349 136.972C272.855 138.502 270.05 139.267 266.934 139.267ZM309.005 139.267C305.889 139.267 303.055 138.502 300.505 136.972C298.012 135.386 296.029 133.289 294.555 130.682C293.082 128.076 292.345 125.157 292.345 121.927L292.43 95.4075C292.43 92.2908 293.139 89.4575 294.555 86.9075C296.029 84.3008 298.012 82.2325 300.505 80.7025C303.055 79.1158 305.889 78.3225 309.005 78.3225C312.122 78.3225 314.927 79.0875 317.42 80.6175C319.914 82.1475 321.897 84.2158 323.37 86.8225C324.844 89.3725 325.58 92.2341 325.58 95.4075V99.3175C325.58 99.5441 325.467 99.6575 325.24 99.6575H315.72C315.494 99.6575 315.38 99.5441 315.38 99.3175V95.4075C315.38 93.5375 314.757 91.9225 313.51 90.5625C312.32 89.2025 310.819 88.5225 309.005 88.5225C306.965 88.5225 305.407 89.2308 304.33 90.6475C303.254 92.0075 302.715 93.5941 302.715 95.4075V121.927C302.715 124.024 303.31 125.724 304.5 127.027C305.747 128.331 307.249 128.982 309.005 128.982C310.819 128.982 312.32 128.274 313.51 126.857C314.757 125.384 315.38 123.741 315.38 121.927V118.017C315.38 117.791 315.494 117.677 315.72 117.677H325.325C325.552 117.677 325.665 117.791 325.665 118.017V121.927C325.665 125.157 324.9 128.076 323.37 130.682C321.897 133.289 319.914 135.386 317.42 136.972C314.927 138.502 312.122 139.267 309.005 139.267ZM335.281 138.417C334.998 138.417 334.856 138.276 334.856 137.992L334.941 79.5975C334.941 79.3708 335.054 79.2575 335.281 79.2575H344.801C345.028 79.2575 345.141 79.3708 345.141 79.5975L345.226 137.992C345.226 138.276 345.113 138.417 344.886 138.417H335.281ZM371.403 139.267C368.343 139.267 365.538 138.502 362.988 136.972C360.494 135.386 358.483 133.317 356.953 130.767C355.423 128.161 354.658 125.299 354.658 122.182L354.743 95.2375C354.743 92.1208 355.479 89.2875 356.953 86.7375C358.483 84.1875 360.523 82.1475 363.073 80.6175C365.623 79.0875 368.399 78.3225 371.403 78.3225C374.463 78.3225 377.239 79.0875 379.733 80.6175C382.226 82.1475 384.209 84.1875 385.683 86.7375C387.213 89.2875 387.978 92.1208 387.978 95.2375L388.063 122.182C388.063 125.299 387.298 128.161 385.768 130.767C384.294 133.317 382.283 135.386 379.733 136.972C377.239 138.502 374.463 139.267 371.403 139.267ZM371.403 128.982C373.103 128.982 374.576 128.302 375.823 126.942C377.126 125.526 377.778 123.939 377.778 122.182L377.693 95.2375C377.693 93.3675 377.098 91.7808 375.908 90.4775C374.718 89.1741 373.216 88.5225 371.403 88.5225C369.646 88.5225 368.144 89.1741 366.898 90.4775C365.651 91.7241 365.028 93.3108 365.028 95.2375V122.182C365.028 124.052 365.651 125.667 366.898 127.027C368.144 128.331 369.646 128.982 371.403 128.982ZM398.265 138.417C397.812 138.417 397.585 138.219 397.585 137.822L397.5 79.9375C397.5 79.4841 397.727 79.2575 398.18 79.2575H405.83L420.195 112.747L419.77 79.9375C419.77 79.4841 420.025 79.2575 420.535 79.2575H428.95C429.29 79.2575 429.46 79.4841 429.46 79.9375L429.545 137.907C429.545 138.247 429.404 138.417 429.12 138.417H421.64L406.935 107.137L407.53 137.737C407.53 138.191 407.275 138.417 406.765 138.417H398.265ZM440.244 138.417C440.017 138.417 439.904 138.276 439.904 137.992L439.989 79.5975C439.989 79.3708 440.102 79.2575 440.329 79.2575H467.614C467.841 79.2575 467.954 79.3991 467.954 79.6825V89.2025C467.954 89.4291 467.841 89.5425 467.614 89.5425H450.189V102.802H467.614C467.841 102.802 467.954 102.916 467.954 103.142L468.039 112.747C468.039 112.974 467.926 113.087 467.699 113.087H450.189V127.962H467.699C467.926 127.962 468.039 128.104 468.039 128.387V138.077C468.039 138.304 467.926 138.417 467.699 138.417H440.244ZM492.524 139.267C489.464 139.267 486.659 138.502 484.109 136.972C481.616 135.386 479.604 133.317 478.074 130.767C476.601 128.161 475.864 125.299 475.864 122.182V118.272C475.864 117.989 476.006 117.847 476.289 117.847H485.809C486.036 117.847 486.149 117.989 486.149 118.272V122.182C486.149 124.052 486.773 125.667 488.019 127.027C489.266 128.331 490.768 128.982 492.524 128.982C494.281 128.982 495.783 128.302 497.029 126.942C498.276 125.582 498.899 123.996 498.899 122.182C498.899 120.086 497.539 118.272 494.819 116.742C493.913 116.232 492.496 115.439 490.569 114.362C488.643 113.286 486.829 112.266 485.129 111.302C482.013 109.489 479.689 107.222 478.159 104.502C476.686 101.726 475.949 98.6091 475.949 95.1525C475.949 91.9791 476.714 89.1458 478.244 86.6525C479.774 84.1025 481.786 82.0908 484.279 80.6175C486.829 79.1441 489.578 78.4075 492.524 78.4075C495.528 78.4075 498.276 79.1725 500.769 80.7025C503.319 82.1758 505.331 84.1875 506.804 86.7375C508.334 89.2308 509.099 92.0358 509.099 95.1525V102.122C509.099 102.349 508.986 102.462 508.759 102.462H499.239C499.013 102.462 498.899 102.349 498.899 102.122L498.814 95.1525C498.814 93.1691 498.191 91.5541 496.944 90.3075C495.698 89.0608 494.224 88.4375 492.524 88.4375C490.768 88.4375 489.266 89.1175 488.019 90.4775C486.773 91.7808 486.149 93.3391 486.149 95.1525C486.149 97.0225 486.546 98.5808 487.339 99.8275C488.133 101.074 489.578 102.264 491.674 103.397C491.958 103.567 492.496 103.879 493.289 104.332C494.139 104.729 495.046 105.211 496.009 105.777C496.973 106.287 497.823 106.741 498.559 107.137C499.353 107.534 499.834 107.789 500.004 107.902C502.838 109.489 505.076 111.444 506.719 113.767C508.363 116.034 509.184 118.839 509.184 122.182C509.184 125.412 508.419 128.331 506.889 130.937C505.416 133.487 503.404 135.527 500.854 137.057C498.361 138.531 495.584 139.267 492.524 139.267Z" fill="#AFDBDB"/>
<path d="M9.64325 63.9725L8.5695 65.6598L8.5917 65.6739L8.61426 65.6875L9.64325 63.9725ZM3.60825 57.7675L1.86713 58.7516L1.87991 58.7742L1.89327 58.7965L3.60825 57.7675ZM13.5533 54.0275L12.0789 55.3789L12.0933 55.3946L12.108 55.4099L13.5533 54.0275ZM22.5633 53.9425L21.0889 52.591L21.0889 52.591L22.5633 53.9425ZM20.3533 43.7425L21.3338 41.9993L21.3338 41.9993L20.3533 43.7425ZM16.1033 41.3625L17.0789 39.6166L17.0789 39.6166L16.1033 41.3625ZM10.6633 38.3025L9.65746 40.0312L9.66731 40.0369L9.67723 40.0425L10.6633 38.3025ZM3.69325 31.5025L1.92655 32.4399L1.93806 32.4616L1.9501 32.483L3.69325 31.5025ZM3.77825 13.6525L5.4829 14.6985L5.48811 14.69L5.49324 14.6815L3.77825 13.6525ZM9.81325 7.61748L8.8127 5.88575L8.80422 5.89065L8.79579 5.89563L9.81325 7.61748ZM26.3033 7.70248L25.2572 9.40712L25.2798 9.42097L25.3027 9.43421L26.3033 7.70248ZM32.3383 13.7375L30.6065 14.738L30.6198 14.7609L30.6336 14.7835L32.3383 13.7375ZM24.4333 29.1225H26.4333V29.1103L26.4331 29.0981L24.4333 29.1225ZM24.3483 22.1525H22.3483V22.1647L22.3484 22.1769L24.3483 22.1525ZM22.4783 17.3075L23.8925 15.8933L23.8925 15.8933L22.4783 17.3075ZM13.5533 17.4775L14.9985 18.8599L15.0132 18.8446L15.0276 18.8289L13.5533 17.4775ZM12.8733 26.8275L14.5606 25.7537L14.5606 25.7537L12.8733 26.8275ZM17.2083 30.3975L18.2372 28.6825L18.1988 28.6594L18.1593 28.6381L17.2083 30.3975ZM18.8233 31.3325L17.831 33.069L17.9027 33.1099L17.9775 33.1448L18.8233 31.3325ZM21.5433 32.7775L20.5292 34.5013L20.5679 34.5241L20.6075 34.5451L21.5433 32.7775ZM24.0933 34.1375L23.1451 35.8984L23.1717 35.9128L23.1988 35.9263L24.0933 34.1375ZM25.5383 34.9025L24.4288 36.5666L24.4934 36.6096L24.561 36.6475L25.5383 34.9025ZM32.2533 40.7675L30.6204 41.9224L30.6272 41.932L30.634 41.9414L32.2533 40.7675ZM32.4233 57.9375L30.6984 56.9251L30.6915 56.9369L32.4233 57.9375ZM26.3883 64.0575L27.4057 65.7794L27.4172 65.7725L26.3883 64.0575ZM18.0583 64.2675C15.3497 64.2675 12.9021 63.5954 10.6722 62.2575L8.61426 65.6875C11.4844 67.4096 14.6468 68.2675 18.0583 68.2675V64.2675ZM10.717 62.2852C8.48731 60.8663 6.69453 59.024 5.32324 56.7385L1.89327 58.7965C3.58198 61.611 5.81253 63.9054 8.5695 65.6598L10.717 62.2852ZM5.34938 56.7834C4.05282 54.4895 3.39825 51.969 3.39825 49.1825H-0.601748C-0.601748 52.6293 0.217018 55.8322 1.86713 58.7516L5.34938 56.7834ZM3.39825 49.1825V45.2725H-0.601748V49.1825H3.39825ZM3.39825 45.2725C3.39825 45.4391 3.35524 45.9314 2.91871 46.3679C2.48219 46.8045 1.98987 46.8475 1.82325 46.8475V42.8475C1.3733 42.8475 0.668482 42.9613 0.0902892 43.5395C-0.487904 44.1177 -0.601748 44.8225 -0.601748 45.2725H3.39825ZM1.82325 46.8475H11.3433V42.8475H1.82325V46.8475ZM11.3433 46.8475C11.0152 46.8475 10.4523 46.7228 10.0365 46.2031C9.68891 45.7686 9.68325 45.3445 9.68325 45.2725H13.6833C13.6833 44.9171 13.6209 44.2805 13.16 43.7043C12.6309 43.0429 11.898 42.8475 11.3433 42.8475V46.8475ZM9.68325 45.2725V49.1825H13.6833V45.2725H9.68325ZM9.68325 49.1825C9.68325 51.5453 10.4891 53.6446 12.0789 55.3789L15.0276 52.676C14.1241 51.6904 13.6833 50.5596 13.6833 49.1825H9.68325ZM12.108 55.4099C13.7206 57.0958 15.7395 57.9825 18.0583 57.9825V53.9825C16.8636 53.9825 15.8793 53.5658 14.9985 52.645L12.108 55.4099ZM18.0583 57.9825C20.4066 57.9825 22.4336 57.0438 24.0376 55.2939L21.0889 52.591C20.1996 53.5612 19.2233 53.9825 18.0583 53.9825V57.9825ZM24.0376 55.2939C25.6158 53.5722 26.4333 51.5058 26.4333 49.1825H22.4333C22.4333 50.4859 22.004 51.5928 21.0889 52.591L24.0376 55.2939ZM26.4333 49.1825C26.4333 46.0454 24.3464 43.6939 21.3338 41.9993L19.3727 45.4856C21.8001 46.851 22.4333 48.1262 22.4333 49.1825H26.4333ZM21.3338 41.9993C20.4245 41.4879 19.0058 40.6934 17.0789 39.6166L15.1276 43.1084C17.054 44.1849 18.4686 44.9771 19.3727 45.4856L21.3338 41.9993ZM17.0789 39.6166C15.1553 38.5416 13.3454 37.5236 11.6493 36.5624L9.67723 40.0425C11.3811 41.008 13.1979 42.03 15.1276 43.1084L17.0789 39.6166ZM11.669 36.5738C8.81188 34.9114 6.76604 32.8858 5.4364 30.522L1.9501 32.483C3.68046 35.5592 6.2813 38.0669 9.65746 40.0312L11.669 36.5738ZM5.45995 30.565C4.15467 28.1051 3.48325 25.3155 3.48325 22.1525H-0.516748C-0.516748 25.9028 0.285167 29.3465 1.92655 32.4399L5.45995 30.565ZM3.48325 22.1525C3.48325 19.3159 4.16233 16.8506 5.4829 14.6985L2.07361 12.6064C0.334179 15.4411 -0.516748 18.6423 -0.516748 22.1525H3.48325ZM5.49324 14.6815C6.85678 12.4089 8.63181 10.6387 10.8307 9.33933L8.79579 5.89563C6.00803 7.54294 3.75972 9.79606 2.06327 12.6235L5.49324 14.6815ZM10.8138 9.34921C13.0595 8.05172 15.4627 7.40748 18.0583 7.40748V3.40748C14.7605 3.40748 11.667 4.23657 8.8127 5.88575L10.8138 9.34921ZM18.0583 7.40748C20.7027 7.40748 23.0873 8.0756 25.2572 9.40712L27.3493 5.99783C24.5325 4.26936 21.4205 3.40748 18.0583 3.40748V7.40748ZM25.3027 9.43421C27.5491 10.7321 29.3086 12.4916 30.6065 14.738L34.07 12.7369C32.4212 9.88332 30.1574 7.6195 27.3038 5.97075L25.3027 9.43421ZM30.6336 14.7835C31.9577 16.9413 32.6333 19.3799 32.6333 22.1525H36.6333C36.6333 18.6917 35.7788 15.5203 34.0429 12.6914L30.6336 14.7835ZM32.6333 22.1525V29.1225H36.6333V22.1525H32.6333ZM32.6333 29.1225C32.6333 28.9275 32.6833 28.414 33.134 27.9633C33.5847 27.5126 34.0983 27.4625 34.2933 27.4625V31.4625C34.7149 31.4625 35.3984 31.3557 35.9625 30.7917C36.5265 30.2277 36.6333 29.5441 36.6333 29.1225H32.6333ZM34.2933 27.4625H24.7733V31.4625H34.2933V27.4625ZM24.7733 27.4625C24.9682 27.4625 25.4818 27.5126 25.9325 27.9633C26.3832 28.414 26.4333 28.9275 26.4333 29.1225H22.4333C22.4333 29.5441 22.54 30.2277 23.104 30.7917C23.6681 31.3557 24.3516 31.4625 24.7733 31.4625V27.4625ZM26.4331 29.0981L26.3481 22.1281L22.3484 22.1769L22.4334 29.1469L26.4331 29.0981ZM26.3483 22.1525C26.3483 19.7111 25.5624 17.5632 23.8925 15.8933L21.064 18.7217C21.8874 19.5451 22.3483 20.6272 22.3483 22.1525H26.3483ZM23.8925 15.8933C22.2863 14.2871 20.3103 13.4375 18.0583 13.4375V17.4375C19.2063 17.4375 20.1769 17.8346 21.064 18.7217L23.8925 15.8933ZM18.0583 13.4375C15.71 13.4375 13.6829 14.3762 12.0789 16.126L15.0276 18.8289C15.9169 17.8588 16.8932 17.4375 18.0583 17.4375V13.4375ZM12.108 16.095C10.5031 17.7728 9.68325 19.8272 9.68325 22.1525H13.6833C13.6833 20.8511 14.11 19.7888 14.9985 18.8599L12.108 16.095ZM9.68325 22.1525C9.68325 24.3026 10.1405 26.2584 11.1859 27.9012L14.5606 25.7537C14.0193 24.9032 13.6833 23.7424 13.6833 22.1525H9.68325ZM11.1859 27.9012C12.2417 29.5603 14.0255 30.9505 16.2572 32.1569L18.1593 28.6381C16.1977 27.5778 15.0915 26.588 14.5606 25.7537L11.1859 27.9012ZM16.1793 32.1125C16.4835 32.295 17.0396 32.6167 17.831 33.069L19.8155 29.596C19.0203 29.1416 18.4997 28.84 18.2372 28.6825L16.1793 32.1125ZM17.9775 33.1448C18.7604 33.5102 19.6105 33.961 20.5292 34.5013L22.5573 31.0536C21.5493 30.4607 20.5861 29.9481 19.669 29.5201L17.9775 33.1448ZM20.6075 34.5451C21.5678 35.0535 22.4135 35.5045 23.1451 35.8984L25.0415 32.3765C24.2996 31.9771 23.4453 31.5215 22.479 31.0099L20.6075 34.5451ZM23.1988 35.9263C23.589 36.1214 23.8924 36.2766 24.1137 36.3938C24.3616 36.525 24.4394 36.5736 24.4288 36.5666L26.6477 33.2384C26.3492 33.0394 25.7331 32.7213 24.9877 32.3486L23.1988 35.9263ZM24.561 36.6475C27.1714 38.1093 29.1717 39.8743 30.6204 41.9224L33.8861 39.6125C32.0481 37.014 29.5718 34.869 26.5155 33.1575L24.561 36.6475ZM30.634 41.9414C31.9847 43.8045 32.7183 46.1768 32.7183 49.1825H36.7183C36.7183 45.5015 35.8084 42.2638 33.8725 39.5935L30.634 41.9414ZM32.7183 49.1825C32.7183 52.0819 32.0358 54.6465 30.6984 56.9251L34.1481 58.9499C35.8707 56.0151 36.7183 52.7431 36.7183 49.1825H32.7183ZM30.6915 56.9369C29.3897 59.19 27.6212 60.9854 25.3593 62.3425L27.4172 65.7725C30.2553 64.0696 32.5101 61.7849 34.155 58.938L30.6915 56.9369ZM25.3708 62.3356C23.2033 63.6164 20.7814 64.2675 18.0583 64.2675V68.2675C21.4551 68.2675 24.5866 67.4452 27.4057 65.7793L25.3708 62.3356ZM69.8697 21.5575L67.9103 21.9583L68.2989 23.8578L70.2095 23.5284L69.8697 21.5575ZM66.9797 16.2875L65.7383 17.8556L65.7741 17.8839L65.8111 17.9105L66.9797 16.2875ZM55.8447 16.3725L56.9958 18.0081L57.0072 17.9999L55.8447 16.3725ZM56.7797 28.6125L55.4915 30.1423L56.7797 28.6125ZM67.3197 33.3725L69.3056 33.6096L69.5089 31.907L67.8573 31.4461L67.3197 33.3725ZM66.6397 39.0675L66.8707 41.0541L68.4385 40.8718L68.6256 39.3046L66.6397 39.0675ZM62.9847 39.4925L62.7537 37.5059L62.753 37.506L62.9847 39.4925ZM54.7397 42.8925L53.4085 41.3999L53.3983 41.409L53.3883 41.4182L54.7397 42.8925ZM54.4847 57.5125L55.7225 55.9415L55.7225 55.9415L54.4847 57.5125ZM71.3147 54.7925L73.0271 55.8258L73.3147 55.3492V54.7925H71.3147ZM71.3147 33.3725V31.3725H69.3147V33.3725H71.3147ZM78.2847 33.3725V35.3725H78.3409L78.3969 35.3693L78.2847 33.3725ZM85.8497 32.9475L87.8296 33.2303L88.1749 30.8137L85.7376 30.9506L85.8497 32.9475ZM85.0847 38.3025L85.3888 40.2792L86.8549 40.0537L87.0646 38.5853L85.0847 38.3025ZM78.4547 39.3225L78.1506 37.3457L76.4547 37.6066V39.3225H78.4547ZM79.8147 58.7025L78.3199 60.0312L78.3388 60.0525L78.3583 60.0732L79.8147 58.7025ZM88.3997 59.2975L90.2147 58.4572L89.4382 56.7801L87.7051 57.422L88.3997 59.2975ZM90.5247 63.8875L91.7247 65.4875L93.0198 64.5162L92.3397 63.0472L90.5247 63.8875ZM76.0747 64.9925L74.9653 66.6566L75.0006 66.6801L75.0368 66.7021L76.0747 64.9925ZM73.1847 60.9975L75.1289 60.5282L74.7594 58.9975H73.1847V60.9975ZM72.8447 60.9975V58.9975H71.8692L71.2687 59.7662L72.8447 60.9975ZM48.1947 62.7825L46.9172 64.3213L46.9329 64.3343L46.9489 64.347L48.1947 62.7825ZM47.2597 41.3625L45.813 39.9815L45.813 39.9815L47.2597 41.3625ZM56.0997 36.0075L56.6857 37.9197L58.0997 37.4864V36.0075H56.0997ZM56.0997 35.6675H58.0997V34.2746L56.7933 33.7916L56.0997 35.6675ZM50.3197 12.2925L48.9787 10.8087L48.9715 10.8152L48.9644 10.8218L50.3197 12.2925ZM72.8447 11.2725L71.5822 12.8236L71.5822 12.8236L72.8447 11.2725ZM77.2647 20.2825L77.6045 22.2534L79.4894 21.9284L79.2489 20.031L77.2647 20.2825ZM71.8292 21.1567C71.264 18.3936 70.1258 16.0882 68.1483 14.6644L65.8111 17.9105C66.667 18.5268 67.4555 19.7347 67.9103 21.9583L71.8292 21.1567ZM68.2211 14.7194C66.4123 13.2874 64.1179 12.6725 61.5397 12.6725V16.6725C63.4949 16.6725 64.8272 17.1342 65.7383 17.8556L68.2211 14.7194ZM61.5397 12.6725C58.9708 12.6725 56.6524 13.3378 54.6823 14.745L57.0072 17.9999C58.2104 17.1405 59.6887 16.6725 61.5397 16.6725V12.6725ZM54.6937 14.7369C52.4288 16.3307 51.5497 18.9634 51.5497 21.9825H55.5497C55.5497 19.6749 56.2007 18.5676 56.9957 18.0081L54.6937 14.7369ZM51.5497 21.9825C51.5497 25.2307 52.9279 27.9835 55.4915 30.1423L58.068 27.0827C56.3249 25.6148 55.5497 23.9476 55.5497 21.9825H51.5497ZM55.4915 30.1423C57.9744 32.2332 61.8186 33.9137 66.7821 35.2989L67.8573 31.4461C63.0742 30.1113 59.8918 28.6185 58.068 27.0827L55.4915 30.1423ZM65.3338 33.1354L64.6538 38.8304L68.6256 39.3046L69.3056 33.6096L65.3338 33.1354ZM66.4087 37.0809L62.7537 37.5059L63.2157 41.4791L66.8707 41.0541L66.4087 37.0809ZM62.753 37.506C59.0351 37.9397 55.8739 39.2011 53.4085 41.3999L56.071 44.3851C57.7989 42.8439 60.1344 41.8386 63.2165 41.479L62.753 37.506ZM53.3883 41.4182C50.865 43.7312 49.6797 46.8545 49.6797 50.5425H53.6797C53.6797 47.7705 54.5345 45.7938 56.0912 44.3668L53.3883 41.4182ZM49.6797 50.5425C49.6797 54.1092 50.7463 57.1132 53.247 59.0835L55.7225 55.9415C54.4832 54.9651 53.6797 53.3224 53.6797 50.5425H49.6797ZM53.247 59.0835C55.5335 60.885 58.3459 61.7225 61.5397 61.7225V57.7225C59.0669 57.7225 57.176 57.0867 55.7225 55.9415L53.247 59.0835ZM61.5397 61.7225C66.6246 61.7225 70.6108 59.83 73.0271 55.8258L69.6024 53.7592C68.052 56.3283 65.5216 57.7225 61.5397 57.7225V61.7225ZM73.3147 54.7925V33.3725H69.3147V54.7925H73.3147ZM71.3147 35.3725H78.2847V31.3725H71.3147V35.3725ZM78.3969 35.3693L85.9619 34.9443L85.7376 30.9506L78.1726 31.3756L78.3969 35.3693ZM83.8698 32.6646L83.1048 38.0196L87.0646 38.5853L87.8296 33.2303L83.8698 32.6646ZM84.7806 36.3257L78.1506 37.3457L78.7589 41.2992L85.3888 40.2792L84.7806 36.3257ZM76.4547 39.3225V54.2825H80.4547V39.3225H76.4547ZM76.4547 54.2825C76.4547 56.4984 76.9755 58.5188 78.3199 60.0312L81.3096 57.3738C80.8406 56.8462 80.4547 55.9199 80.4547 54.2825H76.4547ZM78.3583 60.0732C79.7308 61.5314 81.5877 62.1475 83.6397 62.1475V58.1475C82.4051 58.1475 81.712 57.8002 81.2711 57.3318L78.3583 60.0732ZM83.6397 62.1475C85.5184 62.1475 87.3404 61.8226 89.0944 61.173L87.7051 57.422C86.3991 57.9057 85.0477 58.1475 83.6397 58.1475V62.1475ZM86.5848 60.1377L88.7098 64.7277L92.3397 63.0472L90.2147 58.4572L86.5848 60.1377ZM89.3247 62.2875C87.5004 63.6557 84.96 64.4375 81.5147 64.4375V68.4375C85.5495 68.4375 89.0157 67.5192 91.7247 65.4875L89.3247 62.2875ZM81.5147 64.4375C79.8034 64.4375 78.356 64.0378 77.1127 63.2829L75.0368 66.7021C76.9668 67.8739 79.1461 68.4375 81.5147 68.4375V64.4375ZM77.1841 63.3284C76.0328 62.5608 75.3967 61.6376 75.1289 60.5282L71.2406 61.4668C71.7661 63.644 73.0567 65.3841 74.9653 66.6566L77.1841 63.3284ZM73.1847 58.9975H72.8447V62.9975H73.1847V58.9975ZM71.2687 59.7662C68.9133 62.781 65.2417 64.4375 59.8397 64.4375V68.4375C66.1111 68.4375 71.1095 66.4673 74.4208 62.2288L71.2687 59.7662ZM59.8397 64.4375C55.4941 64.4375 52.0789 63.3188 49.4406 61.2179L46.9489 64.347C50.4306 67.1195 54.7787 68.4375 59.8397 68.4375V64.4375ZM49.4722 61.2437C47.015 59.2037 45.6897 56.2496 45.6897 52.0725H41.6897C41.6897 57.1887 43.3678 61.3746 46.9172 64.3213L49.4722 61.2437ZM45.6897 52.0725C45.6897 47.7572 46.7905 44.7506 48.7064 42.7434L45.813 39.9815C42.969 42.961 41.6897 47.0944 41.6897 52.0725H45.6897ZM48.7064 42.7434C50.8342 40.5144 53.4777 38.9028 56.6857 37.9197L55.5137 34.0953C51.6951 35.2655 48.4453 37.2239 45.813 39.9815L48.7064 42.7434ZM58.0997 36.0075V35.6675H54.0997V36.0075H58.0997ZM56.7933 33.7916C53.6655 32.6351 51.4885 31.1137 50.0922 29.3183C48.7132 27.5454 47.9847 25.3645 47.9847 22.6625H43.9847C43.9847 26.1371 44.9421 29.2121 46.9348 31.7741C48.9101 34.3138 51.7907 36.2065 55.4061 37.5434L56.7933 33.7916ZM47.9847 22.6625C47.9847 18.9204 49.232 16.0147 51.6751 13.7632L48.9644 10.8218C45.6275 13.8969 43.9847 17.9046 43.9847 22.6625H47.9847ZM51.6608 13.7762C54.1652 11.5126 57.5329 10.2975 61.9647 10.2975V6.29748C56.7633 6.29748 52.3676 7.74567 48.9787 10.8087L51.6608 13.7762ZM61.9647 10.2975C66.5548 10.2975 69.6488 11.2499 71.5822 12.8236L74.1073 9.72136C71.1673 7.32837 67.008 6.29748 61.9647 6.29748V10.2975ZM71.5822 12.8236C73.5144 14.3963 74.8157 16.8667 75.2806 20.534L79.2489 20.031C78.6937 15.6516 77.0484 12.1153 74.1073 9.72135L71.5822 12.8236ZM76.9249 18.3116L69.5299 19.5866L70.2095 23.5284L77.6045 22.2534L76.9249 18.3116ZM108.861 16.5425H110.861V14.5425H108.861V16.5425ZM97.3858 16.1175L95.3859 16.0996L95.3858 16.1085V16.1175H97.3858ZM97.4708 6.59748L99.4707 6.61533L99.4708 6.60641V6.59748H97.4708ZM119.061 16.5425V14.5425H117.057L117.061 16.546L119.061 16.5425ZM119.146 64.9925L121.146 64.9925L121.146 64.989L119.146 64.9925ZM109.201 63.4175C109.529 63.4175 110.092 63.5421 110.508 64.0618C110.855 64.4963 110.861 64.9205 110.861 64.9925H106.861C106.861 65.3478 106.923 65.9844 107.384 66.5606C107.913 67.222 108.646 67.4175 109.201 67.4175V63.4175ZM110.861 64.9925V16.5425H106.861V64.9925H110.861ZM108.861 14.5425H97.8108V18.5425H108.861V14.5425ZM97.8108 14.5425C97.9774 14.5425 98.4698 14.5855 98.9063 15.022C99.3428 15.4585 99.3858 15.9509 99.3858 16.1175H95.3858C95.3858 16.5674 95.4997 17.2722 96.0779 17.8504C96.6561 18.4286 97.3609 18.5425 97.8108 18.5425V14.5425ZM99.3857 16.1353L99.4707 6.61533L95.4709 6.57962L95.3859 16.0996L99.3857 16.1353ZM99.4708 6.59748C99.4708 6.79243 99.4207 7.306 98.97 7.75669C98.5193 8.20738 98.0058 8.25748 97.8108 8.25748V4.25748C97.3892 4.25748 96.7056 4.36424 96.1416 4.92827C95.5776 5.49229 95.4708 6.17586 95.4708 6.59748H99.4708ZM97.8108 8.25748H130.111V4.25748H97.8108V8.25748ZM130.111 8.25748C130.039 8.25748 129.615 8.25182 129.18 7.90422C128.66 7.48844 128.536 6.92556 128.536 6.59748H132.536C132.536 6.04273 132.34 5.30985 131.679 4.78074C131.103 4.3198 130.466 4.25748 130.111 4.25748V8.25748ZM128.536 6.59748V16.1175H132.536V6.59748H128.536ZM128.536 16.1175C128.536 16.0455 128.541 15.6213 128.889 15.1868C129.305 14.6671 129.868 14.5425 130.196 14.5425V18.5425C130.751 18.5425 131.483 18.347 132.013 17.6856C132.474 17.1094 132.536 16.4728 132.536 16.1175H128.536ZM130.196 14.5425H119.061V18.5425H130.196V14.5425ZM117.061 16.546L117.146 64.996L121.146 64.989L121.061 16.539L117.061 16.546ZM117.146 64.9925C117.146 64.9205 117.151 64.4963 117.499 64.0618C117.915 63.5421 118.478 63.4175 118.806 63.4175V67.4175C119.361 67.4175 120.093 67.222 120.623 66.5606C121.084 65.9844 121.146 65.3478 121.146 64.9925H117.146ZM118.806 63.4175H109.201V67.4175H118.806V63.4175ZM4.03325 138.417L4.03325 140.418L4.04443 140.417L4.03325 138.417ZM3.60825 137.992L1.60825 137.987V137.992H3.60825ZM3.77825 79.5975L5.77825 79.6033V79.5975H3.77825ZM4.11825 79.2575V81.2575L4.12895 81.2574L4.11825 79.2575ZM20.0133 79.1725L20.0239 81.1724L20.0368 81.1724L20.0496 81.1721L20.0133 79.1725ZM28.5133 81.3825L27.4843 83.0975L27.4925 83.1024L27.5009 83.1073L28.5133 81.3825ZM34.7183 87.5875L32.9934 88.5999L32.9983 88.6082L33.0033 88.6165L34.7183 87.5875ZM34.6333 129.492L36.3515 130.516L36.3562 130.508L36.3608 130.5L34.6333 129.492ZM28.2583 135.867L27.2346 134.149L28.2583 135.867ZM19.2483 138.332L19.2594 140.332L19.2708 140.332L19.2821 140.332L19.2483 138.332ZM13.9783 127.962L11.9783 127.958L11.9738 129.962H13.9783V127.962ZM24.5183 125.752L23.104 124.338L23.0902 124.352L23.0766 124.366L24.5183 125.752ZM24.6883 91.3275L23.2443 92.7113L23.2737 92.742L23.3044 92.7715L24.6883 91.3275ZM20.0133 89.3725L20.0418 91.3723L20.0588 91.372L20.0757 91.3715L20.0133 89.3725ZM14.0633 89.4575L14.0347 87.4577L12.0676 87.4858L12.0633 89.4531L14.0633 89.4575ZM4.03325 136.417C4.19988 136.417 4.69219 136.46 5.12872 136.897C5.56524 137.334 5.60825 137.826 5.60825 137.992H1.60825C1.60825 138.442 1.7221 139.147 2.30029 139.725C2.87848 140.304 3.5833 140.417 4.03325 140.417V136.417ZM5.60824 137.998L5.77824 79.6033L1.77826 79.5917L1.60826 137.987L5.60824 137.998ZM5.77825 79.5975C5.77825 79.7924 5.72816 80.306 5.27747 80.7567C4.82677 81.2074 4.31321 81.2575 4.11825 81.2575V77.2575C3.69663 77.2575 3.01306 77.3642 2.44904 77.9283C1.88501 78.4923 1.77825 79.1759 1.77825 79.5975H5.77825ZM4.12895 81.2574L20.0239 81.1724L20.0026 77.1725L4.10756 77.2575L4.12895 81.2574ZM20.0496 81.1721C22.8104 81.122 25.2716 81.7698 27.4843 83.0975L29.5422 79.6675C26.655 77.9351 23.4494 77.1097 19.9769 77.1728L20.0496 81.1721ZM27.5009 83.1073C29.8131 84.4645 31.6362 86.2876 32.9934 88.5999L36.4431 86.5751C34.7403 83.674 32.4267 81.3604 29.5257 79.6576L27.5009 83.1073ZM33.0033 88.6165C34.3376 90.8404 35.0133 93.3151 35.0133 96.0875H39.0133C39.0133 92.6265 38.1589 89.4346 36.4332 86.5585L33.0033 88.6165ZM35.0133 96.0875V120.482H39.0133V96.0875H35.0133ZM35.0133 120.482C35.0133 123.431 34.306 126.084 32.9057 128.485L36.3608 130.5C38.1339 127.461 39.0133 124.107 39.0133 120.482H35.0133ZM32.9151 128.469C31.4986 130.847 29.6123 132.733 27.2346 134.149L29.2819 137.586C32.2309 135.829 34.5946 133.465 36.3515 130.516L32.9151 128.469ZM27.2346 134.149C24.8944 135.543 22.2372 136.282 19.2144 136.333L19.2821 140.332C22.946 140.27 26.2954 139.365 29.2819 137.586L27.2346 134.149ZM19.2371 136.333L4.02208 136.418L4.04443 140.417L19.2594 140.332L19.2371 136.333ZM13.9783 129.962H19.2483V125.962H13.9783V129.962ZM19.2483 129.962C21.8731 129.962 24.1554 129.015 25.9599 127.139L23.0766 124.366C22.0478 125.436 20.8167 125.962 19.2483 125.962V129.962ZM25.9325 127.167C27.7719 125.327 28.7283 123.065 28.7283 120.482H24.7283C24.7283 121.979 24.2113 123.231 23.104 124.338L25.9325 127.167ZM28.7283 120.482V96.0025H24.7283V120.482H28.7283ZM28.7283 96.0025C28.7283 93.6206 27.8085 91.5476 26.0721 89.8835L23.3044 92.7715C24.288 93.714 24.7283 94.7577 24.7283 96.0025H28.7283ZM26.1322 89.9437C24.4537 88.1922 22.3549 87.2983 19.9508 87.3735L20.0757 91.3715C21.2982 91.3333 22.3161 91.7428 23.2443 92.7113L26.1322 89.9437ZM19.9847 87.3727L14.0347 87.4577L14.0918 91.4573L20.0418 91.3723L19.9847 87.3727ZM12.0633 89.4531L11.9783 127.958L15.9782 127.967L16.0632 89.4619L12.0633 89.4531ZM46.676 137.992L44.676 137.99V137.992H46.676ZM46.761 79.5975L48.761 79.6004V79.5975H46.761ZM56.961 79.5975H54.961L54.961 79.6004L56.961 79.5975ZM57.046 137.992H59.046L59.046 137.99L57.046 137.992ZM47.101 136.417C47.2676 136.417 47.76 136.46 48.1965 136.897C48.633 137.334 48.676 137.826 48.676 137.992H44.676C44.676 138.442 44.7899 139.147 45.3681 139.725C45.9463 140.304 46.6511 140.417 47.101 140.417V136.417ZM48.676 137.995L48.761 79.6004L44.761 79.5946L44.676 137.99L48.676 137.995ZM48.761 79.5975C48.761 79.7924 48.7109 80.306 48.2602 80.7567C47.8095 81.2074 47.296 81.2575 47.101 81.2575V77.2575C46.6794 77.2575 45.9958 77.3642 45.4318 77.9283C44.8678 78.4923 44.761 79.1759 44.761 79.5975H48.761ZM47.101 81.2575H56.621V77.2575H47.101V81.2575ZM56.621 81.2575C56.4261 81.2575 55.9125 81.2074 55.4618 80.7567C55.0111 80.306 54.961 79.7924 54.961 79.5975H58.961C58.961 79.1759 58.8543 78.4923 58.2902 77.9283C57.7262 77.3642 57.0426 77.2575 56.621 77.2575V81.2575ZM54.961 79.6004L55.046 137.995L59.046 137.99L58.961 79.5946L54.961 79.6004ZM55.046 137.992C55.046 137.92 55.0517 137.496 55.3993 137.062C55.8151 136.542 56.3779 136.417 56.706 136.417V140.417C57.2608 140.417 57.9937 140.222 58.5228 139.561C58.9837 138.984 59.046 138.348 59.046 137.992H55.046ZM56.706 136.417H47.101V140.417H56.706V136.417ZM73.5327 136.972L72.459 138.66L72.4812 138.674L72.5037 138.687L73.5327 136.972ZM67.4977 130.767L65.7566 131.752L65.7694 131.774L65.7827 131.796L67.4977 130.767ZM77.4427 127.027L75.9684 128.379L75.9827 128.395L75.9974 128.41L77.4427 127.027ZM86.4527 126.942L84.9784 125.591L84.9784 125.591L86.4527 126.942ZM84.2427 116.742L85.2232 114.999L85.2232 114.999L84.2427 116.742ZM79.9927 114.362L80.9683 112.617L80.9683 112.617L79.9927 114.362ZM74.5527 111.302L73.5469 113.031L73.5568 113.037L73.5667 113.043L74.5527 111.302ZM67.5827 104.502L65.816 105.44L65.8275 105.462L65.8396 105.483L67.5827 104.502ZM67.6677 86.6525L69.3724 87.6985L69.3776 87.69L69.3827 87.6815L67.6677 86.6525ZM73.7027 80.6175L72.7022 78.8858L72.6937 78.8906L72.6852 78.8956L73.7027 80.6175ZM90.1927 80.7025L89.1467 82.4071L89.1692 82.421L89.1922 82.4342L90.1927 80.7025ZM96.2277 86.7375L94.496 87.738L94.5092 87.7609L94.5231 87.7835L96.2277 86.7375ZM88.3227 102.122H90.3227V102.11L90.3226 102.098L88.3227 102.122ZM88.2377 95.1525H86.2377V95.1647L86.2379 95.1769L88.2377 95.1525ZM86.3677 90.3075L87.7819 88.8933L87.7819 88.8933L86.3677 90.3075ZM77.4427 90.4775L78.888 91.8599L78.9027 91.8446L78.917 91.8289L77.4427 90.4775ZM76.7627 99.8275L78.45 98.7537L78.45 98.7537L76.7627 99.8275ZM81.0977 103.397L82.1267 101.682L82.0882 101.659L82.0487 101.638L81.0977 103.397ZM82.7127 104.332L81.7204 106.069L81.7921 106.11L81.8669 106.145L82.7127 104.332ZM85.4327 105.777L84.4187 107.501L84.4573 107.524L84.4969 107.545L85.4327 105.777ZM87.9827 107.137L87.0345 108.898L87.0612 108.913L87.0883 108.926L87.9827 107.137ZM89.4277 107.902L88.3183 109.567L88.3828 109.61L88.4505 109.647L89.4277 107.902ZM96.1427 113.767L94.5099 114.922L94.5166 114.932L94.5235 114.941L96.1427 113.767ZM96.3127 130.937L94.5878 129.925L94.581 129.937L96.3127 130.937ZM90.2777 137.057L91.2952 138.779L91.3067 138.772L90.2777 137.057ZM81.9477 137.267C79.2392 137.267 76.7915 136.595 74.5617 135.257L72.5037 138.687C75.3739 140.41 78.5362 141.267 81.9477 141.267V137.267ZM74.6065 135.285C72.3768 133.866 70.584 132.024 69.2127 129.738L65.7827 131.796C67.4714 134.611 69.702 136.905 72.459 138.66L74.6065 135.285ZM69.2388 129.783C67.9423 127.489 67.2877 124.969 67.2877 122.182H63.2877C63.2877 125.629 64.1065 128.832 65.7566 131.752L69.2388 129.783ZM67.2877 122.182V118.272H63.2877V122.182H67.2877ZM67.2877 118.272C67.2877 118.439 67.2447 118.931 66.8082 119.368C66.3716 119.804 65.8793 119.847 65.7127 119.847V115.847C65.2628 115.847 64.5579 115.961 63.9797 116.54C63.4015 117.118 63.2877 117.823 63.2877 118.272H67.2877ZM65.7127 119.847H75.2327V115.847H65.7127V119.847ZM75.2327 119.847C74.9046 119.847 74.3417 119.723 73.926 119.203C73.5784 118.769 73.5727 118.344 73.5727 118.272H77.5727C77.5727 117.917 77.5104 117.281 77.0494 116.704C76.5203 116.043 75.7875 115.847 75.2327 115.847V119.847ZM73.5727 118.272V122.182H77.5727V118.272H73.5727ZM73.5727 122.182C73.5727 124.545 74.3786 126.645 75.9684 128.379L78.917 125.676C78.0135 124.69 77.5727 123.56 77.5727 122.182H73.5727ZM75.9974 128.41C77.61 130.096 79.629 130.982 81.9477 130.982V126.982C80.7531 126.982 79.7687 126.566 78.888 125.645L75.9974 128.41ZM81.9477 130.982C84.296 130.982 86.323 130.044 87.927 128.294L84.9784 125.591C84.0891 126.561 83.1127 126.982 81.9477 126.982V130.982ZM87.927 128.294C89.5053 126.572 90.3227 124.506 90.3227 122.182H86.3227C86.3227 123.486 85.8935 124.593 84.9784 125.591L87.927 128.294ZM90.3227 122.182C90.3227 119.045 88.2359 116.694 85.2232 114.999L83.2622 118.486C85.6895 119.851 86.3227 121.126 86.3227 122.182H90.3227ZM85.2232 114.999C84.314 114.488 82.8953 113.693 80.9683 112.617L79.0171 116.108C80.9435 117.185 82.3581 117.977 83.2622 118.486L85.2232 114.999ZM80.9683 112.617C79.0447 111.542 77.2349 110.524 75.5387 109.562L73.5667 113.043C75.2705 114.008 77.0874 115.03 79.0171 116.108L80.9683 112.617ZM75.5585 109.574C72.7013 107.911 70.6555 105.886 69.3259 103.522L65.8396 105.483C67.5699 108.559 70.1707 111.067 73.5469 113.031L75.5585 109.574ZM69.3494 103.565C68.0441 101.105 67.3727 98.3155 67.3727 95.1525H63.3727C63.3727 98.9028 64.1746 102.347 65.816 105.44L69.3494 103.565ZM67.3727 95.1525C67.3727 92.3159 68.0518 89.8506 69.3724 87.6985L65.9631 85.6064C64.2236 88.4411 63.3727 91.6423 63.3727 95.1525H67.3727ZM69.3827 87.6815C70.7462 85.4089 72.5213 83.6387 74.7202 82.3393L72.6852 78.8956C69.8975 80.5429 67.6492 82.7961 65.9527 85.6235L69.3827 87.6815ZM74.7033 82.3492C76.9489 81.0517 79.3521 80.4075 81.9477 80.4075V76.4075C78.65 76.4075 75.5565 77.2366 72.7022 78.8858L74.7033 82.3492ZM81.9477 80.4075C84.5921 80.4075 86.9768 81.0756 89.1467 82.4071L91.2387 78.9978C88.422 77.2694 85.3099 76.4075 81.9477 76.4075V80.4075ZM89.1922 82.4342C91.4385 83.7321 93.1981 85.4916 94.496 87.738L97.9594 85.7369C96.3107 82.8833 94.0469 80.6195 91.1933 78.9707L89.1922 82.4342ZM94.5231 87.7835C95.8472 89.9413 96.5227 92.3799 96.5227 95.1525H100.523C100.523 91.6917 99.6682 88.5203 97.9324 85.6914L94.5231 87.7835ZM96.5227 95.1525V102.122H100.523V95.1525H96.5227ZM96.5227 102.122C96.5227 101.928 96.5728 101.414 97.0235 100.963C97.4742 100.513 97.9878 100.462 98.1827 100.462V104.462C98.6043 104.462 99.2879 104.356 99.8519 103.792C100.416 103.228 100.523 102.544 100.523 102.122H96.5227ZM98.1827 100.462H88.6627V104.462H98.1827V100.462ZM88.6627 100.462C88.8577 100.462 89.3712 100.513 89.8219 100.963C90.2726 101.414 90.3227 101.928 90.3227 102.122H86.3227C86.3227 102.544 86.4295 103.228 86.9935 103.792C87.5575 104.356 88.2411 104.462 88.6627 104.462V100.462ZM90.3226 102.098L90.2376 95.1281L86.2379 95.1769L86.3229 102.147L90.3226 102.098ZM90.2377 95.1525C90.2377 92.7111 89.4519 90.5632 87.7819 88.8933L84.9535 91.7217C85.7769 92.5451 86.2377 93.6272 86.2377 95.1525H90.2377ZM87.7819 88.8933C86.1757 87.2871 84.1997 86.4375 81.9477 86.4375V90.4375C83.0957 90.4375 84.0664 90.8346 84.9535 91.7217L87.7819 88.8933ZM81.9477 86.4375C79.5994 86.4375 77.5724 87.3762 75.9684 89.126L78.917 91.8289C79.8063 90.8588 80.7827 90.4375 81.9477 90.4375V86.4375ZM75.9974 89.095C74.3926 90.7728 73.5727 92.8272 73.5727 95.1525H77.5727C77.5727 93.8511 77.9995 92.7888 78.888 91.8599L75.9974 89.095ZM73.5727 95.1525C73.5727 97.3026 74.03 99.2584 75.0754 100.901L78.45 98.7537C77.9088 97.9032 77.5727 96.7424 77.5727 95.1525H73.5727ZM75.0754 100.901C76.1312 102.56 77.9149 103.951 80.1467 105.157L82.0487 101.638C80.0872 100.578 78.9809 99.588 78.45 98.7537L75.0754 100.901ZM80.0687 105.112C80.3729 105.295 80.929 105.617 81.7204 106.069L83.705 102.596C82.9097 102.142 82.3891 101.84 82.1267 101.682L80.0687 105.112ZM81.8669 106.145C82.6499 106.51 83.5 106.961 84.4187 107.501L86.4467 104.054C85.4387 103.461 84.4756 102.948 83.5585 102.52L81.8669 106.145ZM84.4969 107.545C85.4573 108.053 86.303 108.505 87.0345 108.898L88.9309 105.377C88.1891 104.977 87.3348 104.521 86.3685 104.01L84.4969 107.545ZM87.0883 108.926C87.4785 109.121 87.7818 109.277 88.0032 109.394C88.251 109.525 88.3289 109.574 88.3183 109.567L90.5371 106.238C90.2386 106.039 89.6226 105.721 88.8771 105.349L87.0883 108.926ZM88.4505 109.647C91.0608 111.109 93.0612 112.874 94.5099 114.922L97.7755 112.613C95.9376 110.014 93.4613 107.869 90.4049 106.157L88.4505 109.647ZM94.5235 114.941C95.8742 116.804 96.6077 119.177 96.6077 122.182H100.608C100.608 118.501 99.6979 115.264 97.7619 112.594L94.5235 114.941ZM96.6077 122.182C96.6077 125.082 95.9253 127.647 94.5879 129.925L98.0375 131.95C99.7601 129.015 100.608 125.743 100.608 122.182H96.6077ZM94.581 129.937C93.2792 132.19 91.5106 133.985 89.2487 135.342L91.3067 138.772C94.1448 137.07 96.3996 134.785 98.0444 131.938L94.581 129.937ZM89.2603 135.336C87.0927 136.616 84.6709 137.267 81.9477 137.267V141.267C85.3446 141.267 88.476 140.445 91.2952 138.779L89.2603 135.336ZM115.239 89.5425H117.239V87.5425H115.239V89.5425ZM103.764 89.1175L101.764 89.0996L101.764 89.1085V89.1175H103.764ZM103.849 79.5975L105.849 79.6153L105.849 79.6064V79.5975H103.849ZM125.439 89.5425V87.5425H123.436L123.439 89.546L125.439 89.5425ZM125.524 137.992L127.524 137.992L127.524 137.989L125.524 137.992ZM115.579 136.417C115.907 136.417 116.47 136.542 116.886 137.062C117.233 137.496 117.239 137.92 117.239 137.992H113.239C113.239 138.348 113.301 138.984 113.762 139.561C114.292 140.222 115.024 140.417 115.579 140.417V136.417ZM117.239 137.992V89.5425H113.239V137.992H117.239ZM115.239 87.5425H104.189V91.5425H115.239V87.5425ZM104.189 87.5425C104.356 87.5425 104.848 87.5855 105.285 88.022C105.721 88.4585 105.764 88.9509 105.764 89.1175H101.764C101.764 89.5674 101.878 90.2722 102.456 90.8504C103.034 91.4286 103.739 91.5425 104.189 91.5425V87.5425ZM105.764 89.1353L105.849 79.6153L101.849 79.5796L101.764 89.0996L105.764 89.1353ZM105.849 79.5975C105.849 79.7924 105.799 80.306 105.348 80.7567C104.898 81.2074 104.384 81.2575 104.189 81.2575V77.2575C103.768 77.2575 103.084 77.3642 102.52 77.9283C101.956 78.4923 101.849 79.1759 101.849 79.5975H105.849ZM104.189 81.2575H136.489V77.2575H104.189V81.2575ZM136.489 81.2575C136.417 81.2575 135.993 81.2518 135.559 80.9042C135.039 80.4884 134.914 79.9256 134.914 79.5975H138.914C138.914 79.0427 138.719 78.3098 138.057 77.7807C137.481 77.3198 136.845 77.2575 136.489 77.2575V81.2575ZM134.914 79.5975V89.1175H138.914V79.5975H134.914ZM134.914 89.1175C134.914 89.0455 134.92 88.6213 135.267 88.1868C135.683 87.6671 136.246 87.5425 136.574 87.5425V91.5425C137.129 91.5425 137.862 91.347 138.391 90.6856C138.852 90.1094 138.914 89.4728 138.914 89.1175H134.914ZM136.574 87.5425H125.439V91.5425H136.574V87.5425ZM123.439 89.546L123.524 137.996L127.524 137.989L127.439 89.539L123.439 89.546ZM123.524 137.992C123.524 137.92 123.53 137.496 123.877 137.062C124.293 136.542 124.856 136.417 125.184 136.417V140.417C125.739 140.417 126.472 140.222 127.001 139.561C127.462 138.984 127.524 138.348 127.524 137.992H123.524ZM125.184 136.417H115.579V140.417H125.184V136.417ZM144.087 137.992L142.087 137.987V137.992H144.087ZM144.257 79.5975L146.257 79.6033V79.5975H144.257ZM170.182 81.5525L169.153 83.2675L169.176 83.2808L169.198 83.2936L170.182 81.5525ZM176.387 87.5875L174.672 88.6165L174.677 88.625L174.683 88.6335L176.387 87.5875ZM177.747 101.782L179.617 102.492L179.621 102.481L179.625 102.471L177.747 101.782ZM175.537 106.032L177.137 107.232L177.151 107.214L177.165 107.195L175.537 106.032ZM173.242 108.582L171.962 107.046L170.366 108.376L171.756 109.92L173.242 108.582ZM177.832 120.567L175.832 120.567L175.832 120.577L177.832 120.567ZM177.917 137.992L179.917 137.992L179.917 137.983L177.917 137.992ZM165.337 115.297L163.87 116.656L163.896 116.685L163.923 116.712L165.337 115.297ZM154.457 113.002V111.002H152.464L152.457 112.996L154.457 113.002ZM154.372 137.992L152.372 137.986V137.992H154.372ZM154.457 102.802H152.457V104.802H154.457V102.802ZM166.442 100.847L165.059 99.4035L165.059 99.4035L166.442 100.847ZM166.442 91.4125L165.028 92.8267L165.043 92.8417L165.059 92.8565L166.442 91.4125ZM154.457 89.4575V87.4575H152.457V89.4575H154.457ZM144.427 136.417C144.755 136.417 145.318 136.542 145.734 137.062C146.082 137.496 146.087 137.92 146.087 137.992H142.087C142.087 138.348 142.15 138.984 142.611 139.561C143.14 140.222 143.873 140.417 144.427 140.417V136.417ZM146.087 137.998L146.257 79.6033L142.257 79.5917L142.087 137.987L146.087 137.998ZM146.257 79.5975C146.257 79.7924 146.207 80.306 145.757 80.7567C145.306 81.2074 144.792 81.2575 144.597 81.2575V77.2575C144.176 77.2575 143.492 77.3642 142.928 77.9283C142.364 78.4923 142.257 79.1759 142.257 79.5975H146.257ZM144.597 81.2575H161.767V77.2575H144.597V81.2575ZM161.767 81.2575C164.476 81.2575 166.924 81.9296 169.153 83.2675L171.211 79.8375C168.341 78.1154 165.179 77.2575 161.767 77.2575V81.2575ZM169.198 83.2936C171.506 84.598 173.322 86.3652 174.672 88.6165L178.102 86.5585C176.393 83.7098 174.072 81.4536 171.166 79.8114L169.198 83.2936ZM174.683 88.6335C176.003 90.7856 176.682 93.2509 176.682 96.0875H180.682C180.682 92.5773 179.831 89.3761 178.092 86.5414L174.683 88.6335ZM176.682 96.0875C176.682 97.9857 176.4 99.6463 175.87 101.094L179.625 102.471C180.341 100.519 180.682 98.3826 180.682 96.0875H176.682ZM175.877 101.073C175.303 102.587 174.642 103.845 173.91 104.87L177.165 107.195C178.133 105.84 178.945 104.265 179.617 102.492L175.877 101.073ZM173.937 104.832C173.132 105.906 172.474 106.62 171.962 107.046L174.523 110.119C175.371 109.412 176.243 108.425 177.137 107.232L173.937 104.832ZM171.756 109.92C174.484 112.952 175.832 116.47 175.832 120.567H179.832C179.832 115.485 178.121 111.013 174.729 107.245L171.756 109.92ZM175.832 120.577L175.917 138.002L179.917 137.983L179.832 120.558L175.832 120.577ZM175.917 137.992C175.917 137.826 175.96 137.334 176.397 136.897C176.833 136.46 177.326 136.417 177.492 136.417V140.417C177.942 140.417 178.647 140.304 179.225 139.725C179.804 139.147 179.917 138.442 179.917 137.992H175.917ZM177.492 136.417H167.887V140.417H177.492V136.417ZM167.887 136.417C167.966 136.417 168.39 136.422 168.832 136.754C169.383 137.166 169.547 137.759 169.547 138.162H165.547C165.547 138.735 165.769 139.456 166.432 139.954C166.988 140.37 167.582 140.417 167.887 140.417V136.417ZM169.547 138.162V120.567H165.547V138.162H169.547ZM169.547 120.567C169.547 117.984 168.591 115.723 166.752 113.883L163.923 116.712C165.03 117.819 165.547 119.07 165.547 120.567H169.547ZM166.805 113.939C165.007 111.997 162.718 111.002 160.067 111.002V115.002C161.61 115.002 162.834 115.538 163.87 116.656L166.805 113.939ZM160.067 111.002H154.457V115.002H160.067V111.002ZM152.457 112.996L152.372 137.986L156.372 137.999L156.457 113.009L152.457 112.996ZM152.372 137.992C152.372 137.92 152.378 137.496 152.726 137.062C153.141 136.542 153.704 136.417 154.032 136.417V140.417C154.587 140.417 155.32 140.222 155.849 139.561C156.31 138.984 156.372 138.348 156.372 137.992H152.372ZM154.032 136.417H144.427V140.417H154.032V136.417ZM154.457 104.802H161.767V100.802H154.457V104.802ZM161.767 104.802C164.079 104.802 166.123 103.923 167.826 102.291L165.059 99.4035C164.041 100.378 162.969 100.802 161.767 100.802V104.802ZM167.826 102.291C169.577 100.614 170.482 98.5072 170.482 96.0875H166.482C166.482 97.4078 166.028 98.4743 165.059 99.4035L167.826 102.291ZM170.482 96.0875C170.482 93.7056 169.563 91.6326 167.826 89.9685L165.059 92.8565C166.042 93.799 166.482 94.8427 166.482 96.0875H170.482ZM167.857 89.9983C166.185 88.3268 164.121 87.4575 161.767 87.4575V91.4575C163.041 91.4575 164.093 91.8915 165.028 92.8267L167.857 89.9983ZM161.767 87.4575H154.457V91.4575H161.767V87.4575ZM152.457 89.4575V102.802H156.457V89.4575H152.457ZM188.068 137.992L186.068 137.99V137.992H188.068ZM188.153 79.5975L190.153 79.6004V79.5975H188.153ZM198.353 79.5975H196.353L196.353 79.6004L198.353 79.5975ZM198.438 137.992H200.438L200.438 137.99L198.438 137.992ZM188.493 136.417C188.66 136.417 189.152 136.46 189.589 136.897C190.025 137.334 190.068 137.826 190.068 137.992H186.068C186.068 138.442 186.182 139.147 186.76 139.725C187.338 140.304 188.043 140.417 188.493 140.417V136.417ZM190.068 137.995L190.153 79.6004L186.153 79.5946L186.068 137.99L190.068 137.995ZM190.153 79.5975C190.153 79.7924 190.103 80.306 189.652 80.7567C189.202 81.2074 188.688 81.2575 188.493 81.2575V77.2575C188.072 77.2575 187.388 77.3642 186.824 77.9283C186.26 78.4923 186.153 79.1759 186.153 79.5975H190.153ZM188.493 81.2575H198.013V77.2575H188.493V81.2575ZM198.013 81.2575C197.818 81.2575 197.305 81.2074 196.854 80.7567C196.403 80.306 196.353 79.7924 196.353 79.5975H200.353C200.353 79.1759 200.246 78.4923 199.682 77.9283C199.118 77.3642 198.435 77.2575 198.013 77.2575V81.2575ZM196.353 79.6004L196.438 137.995L200.438 137.99L200.353 79.5946L196.353 79.6004ZM196.438 137.992C196.438 137.92 196.444 137.496 196.791 137.062C197.207 136.542 197.77 136.417 198.098 136.417V140.417C198.653 140.417 199.386 140.222 199.915 139.561C200.376 138.984 200.438 138.348 200.438 137.992H196.438ZM198.098 136.417H188.493V140.417H198.098V136.417ZM208.89 137.992L206.89 137.987V137.992H208.89ZM209.06 79.5975L211.06 79.6033V79.5975H209.06ZM234.39 81.6375L233.333 83.3356L233.347 83.3441L233.361 83.3525L234.39 81.6375ZM240.935 102.887L239.175 101.936L239.165 101.955L239.156 101.974L240.935 102.887ZM237.025 107.987L235.728 106.465L234.079 107.87L235.611 109.402L237.025 107.987ZM240.85 113.682L239.007 114.459L239.007 114.459L240.85 113.682ZM239.83 129.492L241.557 130.5L241.557 130.5L239.83 129.492ZM233.37 136.037L234.394 137.756L234.404 137.749L233.37 136.037ZM219.26 102.717H217.26V104.717H219.26V102.717ZM230.48 100.677L228.978 99.3562L228.975 99.3605L230.48 100.677ZM230.395 91.4125L228.951 92.7963L228.966 92.8116L228.981 92.8267L230.395 91.4125ZM219.26 89.3725V87.3725H217.26V89.3725H219.26ZM219.175 128.047L217.175 128.036L217.164 130.047H219.175V128.047ZM229.715 125.837L231.129 127.252L231.142 127.238L231.156 127.225L229.715 125.837ZM219.26 113.002V111.002H217.271L217.26 112.991L219.26 113.002ZM209.23 136.417C209.558 136.417 210.121 136.542 210.537 137.062C210.884 137.496 210.89 137.92 210.89 137.992H206.89C206.89 138.348 206.952 138.984 207.413 139.561C207.942 140.222 208.675 140.417 209.23 140.417V136.417ZM210.89 137.998L211.06 79.6033L207.06 79.5917L206.89 137.987L210.89 137.998ZM211.06 79.5975C211.06 79.7924 211.01 80.306 210.559 80.7567C210.108 81.2074 209.595 81.2575 209.4 81.2575V77.2575C208.978 77.2575 208.295 77.3642 207.731 77.9283C207.167 78.4923 207.06 79.1759 207.06 79.5975H211.06ZM209.4 81.2575H225.72V77.2575H209.4V81.2575ZM225.72 81.2575C228.606 81.2575 231.124 81.9612 233.333 83.3356L235.447 79.9394C232.555 78.1404 229.294 77.2575 225.72 77.2575V81.2575ZM233.361 83.3525C235.623 84.7096 237.391 86.5049 238.693 88.758L242.157 86.7569C240.512 83.91 238.257 81.6254 235.419 79.9225L233.361 83.3525ZM238.693 88.758C239.987 90.9976 240.635 93.4281 240.635 96.0875H244.635C244.635 92.7401 243.809 89.6173 242.157 86.7569L238.693 88.758ZM240.635 96.0875C240.635 98.1998 240.147 100.139 239.175 101.936L242.694 103.839C243.989 101.443 244.635 98.8485 244.635 96.0875H240.635ZM239.156 101.974C238.178 103.878 237.028 105.358 235.728 106.465L238.322 109.51C240.082 108.011 241.538 106.091 242.714 103.801L239.156 101.974ZM235.611 109.402C237.07 110.861 238.2 112.542 239.007 114.459L242.693 112.906C241.687 110.516 240.266 108.401 238.439 106.573L235.611 109.402ZM239.007 114.459C239.808 116.362 240.21 118.364 240.21 120.482H244.21C244.21 117.841 243.705 115.31 242.693 112.906L239.007 114.459ZM240.21 120.482C240.21 123.431 239.503 126.084 238.102 128.485L241.557 130.5C243.331 127.461 244.21 124.107 244.21 120.482H240.21ZM238.102 128.485C236.686 130.913 234.772 132.854 232.336 134.326L234.404 137.749C237.408 135.935 239.801 133.512 241.557 130.5L238.102 128.485ZM232.346 134.319C230.011 135.71 227.394 136.417 224.445 136.417V140.417C228.069 140.417 231.402 139.538 234.394 137.756L232.346 134.319ZM224.445 136.417H209.23V140.417H224.445V136.417ZM219.26 104.717H225.72V100.717H219.26V104.717ZM225.72 104.717C228.217 104.717 230.376 103.834 231.985 101.994L228.975 99.3605C228.204 100.241 227.19 100.717 225.72 100.717V104.717ZM231.981 101.999C233.499 100.275 234.35 98.2889 234.35 96.0875H230.35C230.35 97.1727 229.955 98.247 228.978 99.3562L231.981 101.999ZM234.35 96.0875C234.35 93.734 233.481 91.6697 231.809 89.9983L228.981 92.8267C229.916 93.7619 230.35 94.8143 230.35 96.0875H234.35ZM231.839 90.0287C230.175 88.2922 228.102 87.3725 225.72 87.3725V91.3725C226.965 91.3725 228.008 91.8128 228.951 92.7963L231.839 90.0287ZM225.72 87.3725H219.26V91.3725H225.72V87.3725ZM217.26 89.3725V102.717H221.26V89.3725H217.26ZM219.175 130.047H224.445V126.047H219.175V130.047ZM224.445 130.047C227.028 130.047 229.29 129.091 231.129 127.252L228.301 124.423C227.193 125.531 225.942 126.047 224.445 126.047V130.047ZM231.156 127.225C232.971 125.339 233.925 123.063 233.925 120.482H229.925C229.925 121.982 229.405 123.276 228.274 124.45L231.156 127.225ZM233.925 120.482C233.925 117.899 232.969 115.638 231.129 113.798L228.301 116.627C229.408 117.734 229.925 118.985 229.925 120.482H233.925ZM231.129 113.798C229.29 111.959 227.028 111.002 224.445 111.002V115.002C225.942 115.002 227.193 115.519 228.301 116.627L231.129 113.798ZM224.445 111.002H219.26V115.002H224.445V111.002ZM217.26 112.991L217.175 128.036L221.175 128.059L221.26 113.014L217.26 112.991ZM258.604 136.972L257.547 138.671L257.561 138.679L257.575 138.687L258.604 136.972ZM252.484 130.682L250.742 131.667L250.751 131.681L250.759 131.695L252.484 130.682ZM250.274 122.097L248.274 122.089V122.097H250.274ZM250.444 79.5975L252.444 79.6055V79.5975H250.444ZM262.429 127.027L260.923 128.344L260.953 128.378L260.983 128.41L262.429 127.027ZM271.439 127.027L269.964 125.676L269.962 125.679L271.439 127.027ZM283.509 79.5975L281.509 79.5975L281.509 79.6055L283.509 79.5975ZM283.679 122.097L285.679 122.097L285.679 122.089L283.679 122.097ZM281.384 130.767L279.659 129.755L279.651 129.769L279.642 129.783L281.384 130.767ZM275.349 136.972L274.32 135.257L274.311 135.263L274.303 135.268L275.349 136.972ZM266.934 137.267C264.289 137.267 261.869 136.599 259.633 135.257L257.575 138.687C260.439 140.406 263.572 141.267 266.934 141.267V137.267ZM259.66 135.274C257.387 133.86 255.576 131.999 254.208 129.67L250.759 131.695C252.452 134.579 254.72 136.912 257.547 138.671L259.66 135.274ZM254.225 129.698C252.928 127.404 252.274 124.884 252.274 122.097H248.274C248.274 125.544 249.092 128.747 250.742 131.667L254.225 129.698ZM252.274 122.105L252.444 79.6055L248.444 79.5895L248.274 122.089L252.274 122.105ZM252.444 79.5975C252.444 79.7924 252.394 80.306 251.943 80.7567C251.492 81.2074 250.979 81.2575 250.784 81.2575V77.2575C250.362 77.2575 249.678 77.3642 249.114 77.9283C248.55 78.4923 248.444 79.1759 248.444 79.5975H252.444ZM250.784 81.2575H260.304V77.2575H250.784V81.2575ZM260.304 81.2575C260.109 81.2575 259.595 81.2074 259.144 80.7567C258.694 80.306 258.644 79.7924 258.644 79.5975H262.644C262.644 79.1759 262.537 78.4923 261.973 77.9283C261.409 77.3642 260.725 77.2575 260.304 77.2575V81.2575ZM258.644 79.5975V122.097H262.644V79.5975H258.644ZM258.644 122.097C258.644 124.474 259.392 126.595 260.923 128.344L263.934 125.71C263.085 124.74 262.644 123.575 262.644 122.097H258.644ZM260.983 128.41C262.596 130.096 264.615 130.982 266.934 130.982V126.982C265.739 126.982 264.755 126.566 263.874 125.645L260.983 128.41ZM266.934 130.982C269.291 130.982 271.335 130.107 272.916 128.376L269.962 125.679C269.162 126.554 268.202 126.982 266.934 126.982V130.982ZM272.913 128.379C274.514 126.632 275.309 124.5 275.309 122.097H271.309C271.309 123.548 270.857 124.702 269.964 125.676L272.913 128.379ZM275.309 122.097V79.5975H271.309V122.097H275.309ZM275.309 79.5975C275.309 79.7924 275.259 80.306 274.808 80.7567C274.357 81.2074 273.844 81.2575 273.649 81.2575V77.2575C273.227 77.2575 272.543 77.3642 271.979 77.9283C271.415 78.4923 271.309 79.1759 271.309 79.5975H275.309ZM273.649 81.2575H283.169V77.2575H273.649V81.2575ZM283.169 81.2575C282.974 81.2575 282.46 81.2074 282.009 80.7567C281.559 80.306 281.509 79.7924 281.509 79.5975H285.509C285.509 79.1759 285.402 78.4923 284.838 77.9283C284.274 77.3642 283.59 77.2575 283.169 77.2575V81.2575ZM281.509 79.6055L281.679 122.105L285.679 122.089L285.509 79.5895L281.509 79.6055ZM281.679 122.097C281.679 124.933 280.999 127.471 279.659 129.755L283.108 131.78C284.828 128.851 285.679 125.608 285.679 122.097H281.679ZM279.642 129.783C278.338 132.091 276.571 133.907 274.32 135.257L276.378 138.687C279.226 136.978 281.482 134.657 283.125 131.752L279.642 129.783ZM274.303 135.268C272.145 136.592 269.706 137.267 266.934 137.267V141.267C270.394 141.267 273.566 140.413 276.395 138.677L274.303 135.268ZM300.505 136.972L299.432 138.66L299.454 138.674L299.476 138.687L300.505 136.972ZM294.555 130.682L292.814 131.667L292.814 131.667L294.555 130.682ZM292.345 121.927L290.345 121.921V121.927H292.345ZM292.43 95.4075L294.43 95.4139V95.4075H292.43ZM294.555 86.9075L292.814 85.9234L292.811 85.9298L292.807 85.9362L294.555 86.9075ZM300.505 80.7025L301.551 82.4072L301.562 82.4006L300.505 80.7025ZM317.42 80.6175L316.374 82.3221L316.374 82.3221L317.42 80.6175ZM323.37 86.8225L321.629 87.8066L321.634 87.8148L321.639 87.823L323.37 86.8225ZM313.51 90.5625L312.005 91.8795L312.02 91.8969L312.036 91.9139L313.51 90.5625ZM304.33 90.6475L305.898 91.8889L305.911 91.8734L305.923 91.8576L304.33 90.6475ZM304.5 127.027L303.023 128.376L303.039 128.393L303.055 128.41L304.5 127.027ZM313.51 126.857L311.983 125.566L311.979 125.571L313.51 126.857ZM323.37 130.682L321.645 129.67L321.637 129.684L321.629 129.698L323.37 130.682ZM317.42 136.972L318.466 138.677L318.48 138.669L318.494 138.66L317.42 136.972ZM309.005 137.267C306.233 137.267 303.758 136.592 301.534 135.257L299.476 138.687C302.352 140.413 305.544 141.267 309.005 141.267V137.267ZM301.579 135.285C299.366 133.877 297.611 132.023 296.296 129.698L292.814 131.667C294.447 134.555 296.658 136.895 299.432 138.66L301.579 135.285ZM296.296 129.698C295.006 127.415 294.345 124.841 294.345 121.927H290.345C290.345 125.474 291.158 128.736 292.814 131.667L296.296 129.698ZM294.345 121.934L294.43 95.4139L290.43 95.4011L290.345 121.921L294.345 121.934ZM294.43 95.4075C294.43 92.6067 295.063 90.1114 296.304 87.8788L292.807 85.9362C291.214 88.8036 290.43 91.9749 290.43 95.4075H294.43ZM296.296 87.8916C297.607 85.5729 299.354 83.7555 301.551 82.4071L299.459 78.9978C296.67 80.7095 294.45 83.0287 292.814 85.9234L296.296 87.8916ZM301.562 82.4006C303.782 81.0189 306.247 80.3225 309.005 80.3225V76.3225C305.53 76.3225 302.328 77.2127 299.449 79.0044L301.562 82.4006ZM309.005 80.3225C311.778 80.3225 314.216 80.998 316.374 82.3221L318.466 78.9128C315.637 77.177 312.466 76.3225 309.005 76.3225V80.3225ZM316.374 82.3221C318.572 83.6705 320.319 85.4879 321.629 87.8066L325.111 85.8384C323.475 82.9437 321.256 80.6245 318.466 78.9128L316.374 82.3221ZM321.639 87.823C322.923 90.0454 323.58 92.5573 323.58 95.4075H327.58C327.58 91.911 326.765 88.6996 325.102 85.8219L321.639 87.823ZM323.58 95.4075V99.3175H327.58V95.4075H323.58ZM323.58 99.3175C323.58 99.1225 323.63 98.609 324.081 98.1583C324.532 97.7076 325.045 97.6575 325.24 97.6575V101.657C325.662 101.657 326.345 101.551 326.909 100.987C327.474 100.423 327.58 99.7391 327.58 99.3175H323.58ZM325.24 97.6575H315.72V101.657H325.24V97.6575ZM315.72 97.6575C315.915 97.6575 316.429 97.7076 316.879 98.1583C317.33 98.609 317.38 99.1225 317.38 99.3175H313.38C313.38 99.7391 313.487 100.423 314.051 100.987C314.615 101.551 315.299 101.657 315.72 101.657V97.6575ZM317.38 99.3175V95.4075H313.38V99.3175H317.38ZM317.38 95.4075C317.38 93.0446 316.574 90.9454 314.985 89.211L312.036 91.9139C312.939 92.8996 313.38 94.0303 313.38 95.4075H317.38ZM315.015 89.2455C313.444 87.4497 311.393 86.5225 309.005 86.5225V90.5225C310.244 90.5225 311.196 90.9552 312.005 91.8795L315.015 89.2455ZM309.005 86.5225C306.444 86.5225 304.252 87.4456 302.738 89.4373L305.923 91.8576C306.562 91.016 307.486 90.5225 309.005 90.5225V86.5225ZM302.762 89.4061C301.392 91.1363 300.715 93.1655 300.715 95.4075H304.715C304.715 94.0227 305.115 92.8787 305.898 91.8889L302.762 89.4061ZM300.715 95.4075V121.927H304.715V95.4075H300.715ZM300.715 121.927C300.715 124.424 301.435 126.637 303.023 128.376L305.977 125.679C305.185 124.811 304.715 123.624 304.715 121.927H300.715ZM303.055 128.41C304.668 130.096 306.687 130.982 309.005 130.982V126.982C307.811 126.982 306.826 126.566 305.946 125.645L303.055 128.41ZM309.005 130.982C311.423 130.982 313.481 130.002 315.042 128.144L311.979 125.571C311.16 126.546 310.214 126.982 309.005 126.982V130.982ZM315.037 128.149C316.568 126.34 317.38 124.246 317.38 121.927H313.38C313.38 123.236 312.946 124.428 311.983 125.566L315.037 128.149ZM317.38 121.927V118.017H313.38V121.927H317.38ZM317.38 118.017C317.38 118.212 317.33 118.726 316.879 119.177C316.429 119.627 315.915 119.677 315.72 119.677V115.677C315.299 115.677 314.615 115.784 314.051 116.348C313.487 116.912 313.38 117.596 313.38 118.017H317.38ZM315.72 119.677H325.325V115.677H315.72V119.677ZM325.325 119.677C325.13 119.677 324.617 119.627 324.166 119.177C323.715 118.726 323.665 118.212 323.665 118.017H327.665C327.665 117.596 327.559 116.912 326.994 116.348C326.43 115.784 325.747 115.677 325.325 115.677V119.677ZM323.665 118.017V121.927H327.665V118.017H323.665ZM323.665 121.927C323.665 124.827 322.983 127.392 321.645 129.67L325.095 131.695C326.818 128.76 327.665 125.488 327.665 121.927H323.665ZM321.629 129.698C320.315 132.023 318.559 133.877 316.347 135.285L318.494 138.66C321.268 136.895 323.479 134.555 325.111 131.667L321.629 129.698ZM316.374 135.268C314.216 136.592 311.778 137.267 309.005 137.267V141.267C312.466 141.267 315.637 140.413 318.466 138.677L316.374 135.268ZM334.856 137.992L332.856 137.99V137.992H334.856ZM334.941 79.5975L336.941 79.6004V79.5975H334.941ZM345.141 79.5975H343.141L343.141 79.6004L345.141 79.5975ZM345.226 137.992H347.226L347.226 137.99L345.226 137.992ZM335.281 136.417C335.448 136.417 335.94 136.46 336.376 136.897C336.813 137.334 336.856 137.826 336.856 137.992H332.856C332.856 138.442 332.97 139.147 333.548 139.725C334.126 140.304 334.831 140.417 335.281 140.417V136.417ZM336.856 137.995L336.941 79.6004L332.941 79.5946L332.856 137.99L336.856 137.995ZM336.941 79.5975C336.941 79.7924 336.891 80.306 336.44 80.7567C335.989 81.2074 335.476 81.2575 335.281 81.2575V77.2575C334.859 77.2575 334.176 77.3642 333.612 77.9283C333.048 78.4923 332.941 79.1759 332.941 79.5975H336.941ZM335.281 81.2575H344.801V77.2575H335.281V81.2575ZM344.801 81.2575C344.606 81.2575 344.092 81.2074 343.642 80.7567C343.191 80.306 343.141 79.7924 343.141 79.5975H347.141C347.141 79.1759 347.034 78.4923 346.47 77.9283C345.906 77.3642 345.223 77.2575 344.801 77.2575V81.2575ZM343.141 79.6004L343.226 137.995L347.226 137.99L347.141 79.5946L343.141 79.6004ZM343.226 137.992C343.226 137.92 343.232 137.496 343.579 137.062C343.995 136.542 344.558 136.417 344.886 136.417V140.417C345.441 140.417 346.174 140.222 346.703 139.561C347.164 138.984 347.226 138.348 347.226 137.992H343.226ZM344.886 136.417H335.281V140.417H344.886V136.417ZM362.988 136.972L361.914 138.66L361.936 138.674L361.959 138.687L362.988 136.972ZM356.953 130.767L355.228 131.78L355.233 131.788L355.238 131.796L356.953 130.767ZM354.658 122.182L352.658 122.176V122.182H354.658ZM354.743 95.2375L356.743 95.2438V95.2375H354.743ZM356.953 86.7375L355.238 85.7085L355.229 85.7226L355.221 85.7369L356.953 86.7375ZM363.073 80.6175L364.102 82.3325L364.102 82.3325L363.073 80.6175ZM379.733 80.6175L378.687 82.3221L378.687 82.3221L379.733 80.6175ZM385.683 86.7375L383.951 87.738L383.959 87.7523L383.968 87.7665L385.683 86.7375ZM387.978 95.2375L385.978 95.2375L385.978 95.2438L387.978 95.2375ZM388.063 122.182L390.063 122.182L390.063 122.176L388.063 122.182ZM385.768 130.767L384.043 129.755L384.036 129.767L385.768 130.767ZM379.733 136.972L380.779 138.677L380.789 138.671L379.733 136.972ZM375.823 126.942L374.351 125.588L374.348 125.591L375.823 126.942ZM377.778 122.182L379.778 122.182L379.778 122.176L377.778 122.182ZM377.693 95.2375L375.693 95.2375L375.693 95.2438L377.693 95.2375ZM375.908 90.4775L377.385 89.1289L377.385 89.1289L375.908 90.4775ZM366.898 90.4775L368.312 91.8917L368.328 91.876L368.343 91.8599L366.898 90.4775ZM366.898 127.027L365.423 128.379L365.438 128.395L365.452 128.41L366.898 127.027ZM371.403 137.267C368.694 137.267 366.246 136.595 364.017 135.257L361.959 138.687C364.829 140.41 367.991 141.267 371.403 141.267V137.267ZM364.061 135.285C361.832 133.866 360.039 132.024 358.668 129.738L355.238 131.796C356.926 134.611 359.157 136.905 361.914 138.66L364.061 135.285ZM358.677 129.755C357.333 127.465 356.658 124.955 356.658 122.182H352.658C352.658 125.643 353.512 128.856 355.228 131.78L358.677 129.755ZM356.658 122.189L356.743 95.2438L352.743 95.2312L352.658 122.176L356.658 122.189ZM356.743 95.2375C356.743 92.4508 357.397 89.966 358.684 87.738L355.221 85.7369C353.561 88.609 352.743 91.7908 352.743 95.2375H356.743ZM358.668 87.7665C360.029 85.498 361.833 83.6936 364.102 82.3325L362.044 78.9025C359.212 80.6014 356.937 82.877 355.238 85.7085L358.668 87.7665ZM364.102 82.3325C366.338 80.9909 368.758 80.3225 371.403 80.3225V76.3225C368.041 76.3225 364.908 77.1841 362.044 78.9025L364.102 82.3325ZM371.403 80.3225C374.111 80.3225 376.523 80.9944 378.687 82.3221L380.779 78.9128C377.956 77.1806 374.814 76.3225 371.403 76.3225V80.3225ZM378.687 82.3221C380.894 83.6769 382.643 85.4741 383.951 87.738L387.414 85.7369C385.776 82.9009 383.558 80.6181 380.779 78.9128L378.687 82.3221ZM383.968 87.7665C385.302 89.9904 385.978 92.4651 385.978 95.2375H389.978C389.978 91.7765 389.123 88.5846 387.398 85.7085L383.968 87.7665ZM385.978 95.2438L386.063 122.189L390.063 122.176L389.978 95.2312L385.978 95.2438ZM386.063 122.182C386.063 124.955 385.387 127.465 384.043 129.755L387.492 131.78C389.208 128.856 390.063 125.643 390.063 122.182H386.063ZM384.036 129.767C382.73 132.027 380.953 133.858 378.676 135.274L380.789 138.671C383.612 136.914 385.858 134.608 387.499 131.768L384.036 129.767ZM378.687 135.268C376.523 136.596 374.111 137.267 371.403 137.267V141.267C374.814 141.267 377.956 140.409 380.779 138.677L378.687 135.268ZM371.403 130.982C373.715 130.982 375.708 130.028 377.297 128.294L374.348 125.591C373.444 126.577 372.491 126.982 371.403 126.982V130.982ZM377.294 128.297C378.902 126.549 379.778 124.491 379.778 122.182H375.778C375.778 123.388 375.35 124.502 374.351 125.588L377.294 128.297ZM379.778 122.176L379.693 95.2312L375.693 95.2438L375.778 122.189L379.778 122.176ZM379.693 95.2375C379.693 92.901 378.932 90.8241 377.385 89.1289L374.431 91.826C375.263 92.7375 375.693 93.834 375.693 95.2375H379.693ZM377.385 89.1289C375.804 87.3978 373.76 86.5225 371.403 86.5225V90.5225C372.671 90.5225 373.631 90.9505 374.431 91.826L377.385 89.1289ZM371.403 86.5225C369.084 86.5225 367.065 87.4091 365.452 89.095L368.343 91.8599C369.224 90.9392 370.208 90.5225 371.403 90.5225V86.5225ZM365.483 89.0633C363.825 90.7217 363.028 92.8346 363.028 95.2375H367.028C367.028 93.7871 367.477 92.7266 368.312 91.8917L365.483 89.0633ZM363.028 95.2375V122.182H367.028V95.2375H363.028ZM363.028 122.182C363.028 124.545 363.833 126.645 365.423 128.379L368.372 125.676C367.468 124.69 367.028 123.56 367.028 122.182H363.028ZM365.452 128.41C367.065 130.096 369.084 130.982 371.403 130.982V126.982C370.208 126.982 369.224 126.566 368.343 125.645L365.452 128.41ZM397.585 137.822L399.585 137.822L399.585 137.82L397.585 137.822ZM397.5 79.9375L395.5 79.9375L395.5 79.9404L397.5 79.9375ZM405.83 79.2575L407.668 78.4691L407.149 77.2575H405.83V79.2575ZM420.195 112.747L418.357 113.536L422.195 112.722L420.195 112.747ZM419.77 79.9375H417.77V79.9504L417.77 79.9634L419.77 79.9375ZM429.46 79.9375L427.46 79.9375L427.46 79.9404L429.46 79.9375ZM429.545 137.907L431.545 137.907L431.545 137.905L429.545 137.907ZM421.64 138.417L419.83 139.268L420.37 140.417H421.64V138.417ZM406.935 107.137L408.745 106.287L404.936 107.176L406.935 107.137ZM407.53 137.737H409.53V137.718L409.53 137.699L407.53 137.737ZM398.265 136.417C398.286 136.417 398.675 136.416 399.072 136.764C399.52 137.156 399.585 137.638 399.585 137.822H395.585C395.585 138.404 395.764 139.184 396.438 139.774C397.062 140.32 397.791 140.417 398.265 140.417V136.417ZM399.585 137.82L399.5 79.9345L395.5 79.9404L395.585 137.825L399.585 137.82ZM399.5 79.9375C399.5 80.0191 399.478 80.4477 399.084 80.8417C398.69 81.2357 398.262 81.2575 398.18 81.2575V77.2575C397.645 77.2575 396.877 77.3926 396.256 78.0133C395.635 78.634 395.5 79.4025 395.5 79.9375H399.5ZM398.18 81.2575H405.83V77.2575H398.18V81.2575ZM403.992 80.0459L418.357 113.536L422.033 111.959L407.668 78.4691L403.992 80.0459ZM422.195 112.722L421.77 79.9116L417.77 79.9634L418.195 112.773L422.195 112.722ZM421.77 79.9375C421.77 80.0841 421.718 80.5419 421.29 80.9223C421.1 81.091 420.907 81.1765 420.769 81.2176C420.637 81.2566 420.549 81.2575 420.535 81.2575V77.2575C420.026 77.2575 419.271 77.3655 418.633 77.9327C417.95 78.5397 417.77 79.3375 417.77 79.9375H421.77ZM420.535 81.2575H428.95V77.2575H420.535V81.2575ZM428.95 81.2575C428.815 81.2575 428.603 81.2349 428.361 81.1276C428.108 81.0151 427.892 80.8394 427.733 80.6275C427.582 80.4268 427.517 80.2392 427.488 80.125C427.46 80.013 427.46 79.9426 427.46 79.9375H431.46C431.46 79.5185 431.392 78.8396 430.933 78.2275C430.393 77.5072 429.608 77.2575 428.95 77.2575V81.2575ZM427.46 79.9404L427.545 137.91L431.545 137.905L431.46 79.9345L427.46 79.9404ZM427.545 137.907C427.545 137.849 427.55 137.433 427.903 137.01C428.313 136.517 428.848 136.417 429.12 136.417V140.417C429.676 140.417 430.423 140.233 430.975 139.57C431.47 138.977 431.545 138.306 431.545 137.907H427.545ZM429.12 136.417H421.64V140.417H429.12V136.417ZM423.45 137.567L408.745 106.287L405.125 107.988L419.83 139.268L423.45 137.567ZM404.936 107.176L405.531 137.776L409.53 137.699L408.935 107.099L404.936 107.176ZM405.53 137.737C405.53 137.591 405.582 137.133 406.01 136.753C406.2 136.584 406.393 136.498 406.532 136.457C406.664 136.418 406.751 136.417 406.765 136.417V140.417C407.274 140.417 408.03 140.309 408.668 139.742C409.351 139.135 409.53 138.337 409.53 137.737H405.53ZM406.765 136.417H398.265V140.417H406.765V136.417ZM439.904 137.992L437.904 137.99V137.992H439.904ZM439.989 79.5975L441.989 79.6004V79.5975H439.989ZM450.189 89.5425V87.5425H448.189V89.5425H450.189ZM450.189 102.802H448.189V104.802H450.189V102.802ZM467.954 103.142H465.954V103.151L465.954 103.16L467.954 103.142ZM468.039 112.747H470.039V112.739L470.039 112.73L468.039 112.747ZM450.189 113.087V111.087H448.189V113.087H450.189ZM450.189 127.962H448.189V129.962H450.189V127.962ZM440.244 136.417C440.572 136.417 441.135 136.542 441.551 137.062C441.898 137.496 441.904 137.92 441.904 137.992H437.904C437.904 138.348 437.966 138.984 438.427 139.561C438.956 140.222 439.689 140.417 440.244 140.417V136.417ZM441.904 137.995L441.989 79.6004L437.989 79.5946L437.904 137.99L441.904 137.995ZM441.989 79.5975C441.989 79.7924 441.939 80.306 441.488 80.7567C441.037 81.2074 440.524 81.2575 440.329 81.2575V77.2575C439.907 77.2575 439.224 77.3642 438.66 77.9283C438.096 78.4923 437.989 79.1759 437.989 79.5975H441.989ZM440.329 81.2575H467.614V77.2575H440.329V81.2575ZM467.614 81.2575C467.286 81.2575 466.723 81.1328 466.307 80.6131C465.96 80.1786 465.954 79.7545 465.954 79.6825H469.954C469.954 79.3271 469.892 78.6905 469.431 78.1143C468.902 77.4529 468.169 77.2575 467.614 77.2575V81.2575ZM465.954 79.6825V89.2025H469.954V79.6825H465.954ZM465.954 89.2025C465.954 89.0075 466.004 88.494 466.455 88.0433C466.905 87.5926 467.419 87.5425 467.614 87.5425V91.5425C468.036 91.5425 468.719 91.4357 469.283 90.8717C469.847 90.3077 469.954 89.6241 469.954 89.2025H465.954ZM467.614 87.5425H450.189V91.5425H467.614V87.5425ZM448.189 89.5425V102.802H452.189V89.5425H448.189ZM450.189 104.802H467.614V100.802H450.189V104.802ZM467.614 104.802C467.419 104.802 466.905 104.752 466.455 104.302C466.004 103.851 465.954 103.337 465.954 103.142H469.954C469.954 102.721 469.847 102.037 469.283 101.473C468.719 100.909 468.036 100.802 467.614 100.802V104.802ZM465.954 103.16L466.039 112.765L470.039 112.73L469.954 103.125L465.954 103.16ZM466.039 112.747C466.039 112.553 466.089 112.039 466.54 111.588C466.99 111.138 467.504 111.087 467.699 111.087V115.087C468.121 115.087 468.804 114.981 469.368 114.417C469.932 113.853 470.039 113.169 470.039 112.747H466.039ZM467.699 111.087H450.189V115.087H467.699V111.087ZM448.189 113.087V127.962H452.189V113.087H448.189ZM450.189 129.962H467.699V125.962H450.189V129.962ZM467.699 129.962C467.371 129.962 466.808 129.838 466.392 129.318C466.045 128.884 466.039 128.459 466.039 128.387H470.039C470.039 128.032 469.977 127.396 469.516 126.819C468.987 126.158 468.254 125.962 467.699 125.962V129.962ZM466.039 128.387V138.077H470.039V128.387H466.039ZM466.039 138.077C466.039 137.883 466.089 137.369 466.54 136.918C466.99 136.468 467.504 136.417 467.699 136.417V140.417C468.121 140.417 468.804 140.311 469.368 139.747C469.932 139.183 470.039 138.499 470.039 138.077H466.039ZM467.699 136.417H440.244V140.417H467.699V136.417ZM484.109 136.972L483.036 138.66L483.058 138.674L483.08 138.687L484.109 136.972ZM478.074 130.767L476.333 131.752L476.346 131.774L476.359 131.796L478.074 130.767ZM488.019 127.027L486.545 128.379L486.559 128.395L486.574 128.41L488.019 127.027ZM497.029 126.942L495.555 125.591L495.555 125.591L497.029 126.942ZM494.819 116.742L495.8 114.999L495.8 114.999L494.819 116.742ZM490.569 114.362L491.545 112.617L491.545 112.617L490.569 114.362ZM485.129 111.302L484.123 113.031L484.133 113.037L484.143 113.043L485.129 111.302ZM478.159 104.502L476.393 105.44L476.404 105.462L476.416 105.483L478.159 104.502ZM478.244 86.6525L479.949 87.6985L479.954 87.69L479.959 87.6815L478.244 86.6525ZM484.279 80.6175L483.279 78.8858L483.27 78.8906L483.262 78.8956L484.279 80.6175ZM500.769 80.7025L499.723 82.4071L499.746 82.421L499.769 82.4342L500.769 80.7025ZM506.804 86.7375L505.073 87.738L505.086 87.7609L505.1 87.7835L506.804 86.7375ZM498.899 102.122H500.899V102.11L500.899 102.098L498.899 102.122ZM498.814 95.1525H496.814V95.1647L496.814 95.1769L498.814 95.1525ZM496.944 90.3075L498.358 88.8933L498.358 88.8933L496.944 90.3075ZM488.019 90.4775L489.465 91.8599L489.479 91.8446L489.494 91.8289L488.019 90.4775ZM487.339 99.8275L489.027 98.7537L489.027 98.7537L487.339 99.8275ZM491.674 103.397L492.703 101.682L492.665 101.659L492.625 101.638L491.674 103.397ZM493.289 104.332L492.297 106.069L492.369 106.11L492.443 106.145L493.289 104.332ZM496.009 105.777L494.995 107.501L495.034 107.524L495.073 107.545L496.009 105.777ZM498.559 107.137L497.611 108.898L497.638 108.913L497.665 108.926L498.559 107.137ZM500.004 107.902L498.895 109.567L498.959 109.61L499.027 109.647L500.004 107.902ZM506.719 113.767L505.086 114.922L505.093 114.932L505.1 114.941L506.719 113.767ZM506.889 130.937L505.164 129.925L505.158 129.937L506.889 130.937ZM500.854 137.057L501.872 138.779L501.883 138.772L500.854 137.057ZM492.524 137.267C489.816 137.267 487.368 136.595 485.138 135.257L483.08 138.687C485.95 140.41 489.113 141.267 492.524 141.267V137.267ZM485.183 135.285C482.953 133.866 481.161 132.024 479.789 129.738L476.359 131.796C478.048 134.611 480.279 136.905 483.036 138.66L485.183 135.285ZM479.815 129.783C478.519 127.489 477.864 124.969 477.864 122.182H473.864C473.864 125.629 474.683 128.832 476.333 131.752L479.815 129.783ZM477.864 122.182V118.272H473.864V122.182H477.864ZM477.864 118.272C477.864 118.439 477.821 118.931 477.385 119.368C476.948 119.804 476.456 119.847 476.289 119.847V115.847C475.839 115.847 475.134 115.961 474.556 116.54C473.978 117.118 473.864 117.823 473.864 118.272H477.864ZM476.289 119.847H485.809V115.847H476.289V119.847ZM485.809 119.847C485.481 119.847 484.918 119.723 484.503 119.203C484.155 118.769 484.149 118.344 484.149 118.272H488.149C488.149 117.917 488.087 117.281 487.626 116.704C487.097 116.043 486.364 115.847 485.809 115.847V119.847ZM484.149 118.272V122.182H488.149V118.272H484.149ZM484.149 122.182C484.149 124.545 484.955 126.645 486.545 128.379L489.494 125.676C488.59 124.69 488.149 123.56 488.149 122.182H484.149ZM486.574 128.41C488.187 130.096 490.206 130.982 492.524 130.982V126.982C491.33 126.982 490.345 126.566 489.465 125.645L486.574 128.41ZM492.524 130.982C494.873 130.982 496.9 130.044 498.504 128.294L495.555 125.591C494.666 126.561 493.689 126.982 492.524 126.982V130.982ZM498.504 128.294C500.082 126.572 500.899 124.506 500.899 122.182H496.899C496.899 123.486 496.47 124.593 495.555 125.591L498.504 128.294ZM500.899 122.182C500.899 119.045 498.812 116.694 495.8 114.999L493.839 118.486C496.266 119.851 496.899 121.126 496.899 122.182H500.899ZM495.8 114.999C494.891 114.488 493.472 113.693 491.545 112.617L489.594 116.108C491.52 117.185 492.935 117.977 493.839 118.486L495.8 114.999ZM491.545 112.617C489.621 111.542 487.811 110.524 486.115 109.562L484.143 113.043C485.847 114.008 487.664 115.03 489.594 116.108L491.545 112.617ZM486.135 109.574C483.278 107.911 481.232 105.886 479.902 103.522L476.416 105.483C478.146 108.559 480.747 111.067 484.123 113.031L486.135 109.574ZM479.926 103.565C478.621 101.105 477.949 98.3155 477.949 95.1525H473.949C473.949 98.9028 474.751 102.347 476.393 105.44L479.926 103.565ZM477.949 95.1525C477.949 92.3159 478.628 89.8506 479.949 87.6985L476.54 85.6064C474.8 88.4411 473.949 91.6423 473.949 95.1525H477.949ZM479.959 87.6815C481.323 85.4089 483.098 83.6387 485.297 82.3393L483.262 78.8956C480.474 80.5429 478.226 82.7961 476.529 85.6235L479.959 87.6815ZM485.28 82.3492C487.525 81.0517 489.929 80.4075 492.524 80.4075V76.4075C489.227 76.4075 486.133 77.2366 483.279 78.8858L485.28 82.3492ZM492.524 80.4075C495.169 80.4075 497.553 81.0756 499.723 82.4071L501.815 78.9978C498.999 77.2694 495.886 76.4075 492.524 76.4075V80.4075ZM499.769 82.4342C502.015 83.7321 503.775 85.4916 505.073 87.738L508.536 85.7369C506.887 82.8833 504.623 80.6195 501.77 78.9707L499.769 82.4342ZM505.1 87.7835C506.424 89.9413 507.099 92.3799 507.099 95.1525H511.099C511.099 91.6917 510.245 88.5203 508.509 85.6914L505.1 87.7835ZM507.099 95.1525V102.122H511.099V95.1525H507.099ZM507.099 102.122C507.099 101.928 507.149 101.414 507.6 100.963C508.051 100.513 508.564 100.462 508.759 100.462V104.462C509.181 104.462 509.864 104.356 510.428 103.792C510.992 103.228 511.099 102.544 511.099 102.122H507.099ZM508.759 100.462H499.239V104.462H508.759V100.462ZM499.239 100.462C499.434 100.462 499.948 100.513 500.398 100.963C500.849 101.414 500.899 101.928 500.899 102.122H496.899C496.899 102.544 497.006 103.228 497.57 103.792C498.134 104.356 498.818 104.462 499.239 104.462V100.462ZM500.899 102.098L500.814 95.1281L496.814 95.1769L496.899 102.147L500.899 102.098ZM500.814 95.1525C500.814 92.7111 500.028 90.5632 498.358 88.8933L495.53 91.7217C496.353 92.5451 496.814 93.6272 496.814 95.1525H500.814ZM498.358 88.8933C496.752 87.2871 494.776 86.4375 492.524 86.4375V90.4375C493.672 90.4375 494.643 90.8346 495.53 91.7217L498.358 88.8933ZM492.524 86.4375C490.176 86.4375 488.149 87.3762 486.545 89.126L489.494 91.8289C490.383 90.8588 491.359 90.4375 492.524 90.4375V86.4375ZM486.574 89.095C484.969 90.7728 484.149 92.8272 484.149 95.1525H488.149C488.149 93.8511 488.576 92.7888 489.465 91.8599L486.574 89.095ZM484.149 95.1525C484.149 97.3026 484.607 99.2584 485.652 100.901L489.027 98.7537C488.485 97.9032 488.149 96.7424 488.149 95.1525H484.149ZM485.652 100.901C486.708 102.56 488.491 103.951 490.723 105.157L492.625 101.638C490.664 100.578 489.557 99.588 489.027 98.7537L485.652 100.901ZM490.645 105.112C490.949 105.295 491.506 105.617 492.297 106.069L494.282 102.596C493.486 102.142 492.966 101.84 492.703 101.682L490.645 105.112ZM492.443 106.145C493.226 106.51 494.077 106.961 494.995 107.501L497.023 104.054C496.015 103.461 495.052 102.948 494.135 102.52L492.443 106.145ZM495.073 107.545C496.034 108.053 496.88 108.505 497.611 108.898L499.507 105.377C498.766 104.977 497.911 104.521 496.945 104.01L495.073 107.545ZM497.665 108.926C498.055 109.121 498.358 109.277 498.58 109.394C498.828 109.525 498.905 109.574 498.895 109.567L501.114 106.238C500.815 106.039 500.199 105.721 499.454 105.349L497.665 108.926ZM499.027 109.647C501.637 111.109 503.638 112.874 505.086 114.922L508.352 112.613C506.514 110.014 504.038 107.869 500.981 106.157L499.027 109.647ZM505.1 114.941C506.451 116.804 507.184 119.177 507.184 122.182H511.184C511.184 118.501 510.274 115.264 508.338 112.594L505.1 114.941ZM507.184 122.182C507.184 125.082 506.502 127.647 505.164 129.925L508.614 131.95C510.337 129.015 511.184 125.743 511.184 122.182H507.184ZM505.158 129.937C503.856 132.19 502.087 133.985 499.825 135.342L501.883 138.772C504.721 137.07 506.976 134.785 508.621 131.938L505.158 129.937ZM499.837 135.336C497.669 136.616 495.247 137.267 492.524 137.267V141.267C495.921 141.267 499.053 140.445 501.872 138.779L499.837 135.336Z" fill="#384E88"/>
<path d="M70 40.5L63 40L66 39.5L70 39L68.5 40L70 40.5Z" stroke="#384E88"/>
<path d="M64.7083 33.4175H63.7083M64.7083 33.4175H65.7083M64.7083 33.4175V38.4175M72.2083 34L63.7083 38.4175M72.2083 34V35.9175M72.2083 34L71.2083 33.8185M72.2083 38.4175L63.7083 33.4175M72.2083 38.4175V35.9175M72.2083 38.4175H71.2083M63.7083 38.4175V35.9175M63.7083 38.4175H64.7083M63.7083 33.4175V35.9175M68.2083 33.8185V38.4175M68.2083 33.8185H69.2083M68.2083 33.8185H67.7083M68.2083 38.4175H69.2083M68.2083 38.4175H67.7083M66.7083 33.8185V38.4175M66.7083 33.8185H67.7083M66.7083 33.8185L65.7083 33.4175M66.7083 38.4175H67.7083M66.7083 38.4175H65.7083M63.7083 35.9175H72.2083M70.2083 33.8185V38.4175M70.2083 33.8185H69.2083M70.2083 33.8185H71.2083M70.2083 38.4175H69.2083M70.2083 38.4175H71.2083M69.2083 33.8185V38.4175M71.2083 33.8185V38.4175M67.7083 33.8185V38.4175M65.7083 33.4175V38.4175M65.7083 38.4175H64.7083" stroke="#AFDBDB"/>
<path d="M70.6176 32L65 31V32H75H70.6176Z" stroke="#384E88"/>
</svg>
