<svg width="92" height="92" viewBox="0 0 92 92" fill="none" xmlns="http://www.w3.org/2000/svg">
<path d="M45.6088 45.0222L53.0399 70.64M45.6088 45.0222H72.7911M45.6088 45.0222L24.8799 29.3778M45.6088 45.0222L55.3866 20.9689M45.6088 45.0222L23.1199 60.08M53.0399 70.64L72.7911 45.0222M53.0399 70.64H78.2666M53.0399 70.64L23.1199 60.08M53.0399 70.64L57.5377 84.5244M53.0399 70.64L31.3333 84.5244M72.7911 45.0222L55.3866 20.9689M72.7911 45.0222L78.2666 70.64M72.7911 45.0222L80.2222 22.9244M72.7911 45.0222L88.2399 47.9556M57.5377 84.5244L78.2666 70.64M57.5377 84.5244H31.3333M57.5377 84.5244L45.6088 90L31.3333 84.5244M57.5377 84.5244L72.0088 81.9822L78.2666 70.64M78.2666 70.64L88.2399 47.9556M78.2666 70.64L88.2399 61.4489V47.9556M31.3333 84.5244L23.1199 60.08M31.3333 84.5244L12.9511 70.3843M31.3333 84.5244L20.5777 81.0044C18.0355 77.9407 12.9511 71.5275 12.9511 70.3843M23.1199 60.08L24.8799 29.3778M23.1199 60.08L10.9955 68.88M23.1199 60.08L6.10661 45.0222M24.8799 29.3778L35.0488 6.69334M24.8799 29.3778L55.3866 20.9689M24.8799 29.3778L12.9511 20.9689M24.8799 29.3778L6.10661 45.0222M35.0488 6.69334L55.3866 20.9689M35.0488 6.69334H61.4488M35.0488 6.69334L47.7599 2.58667L61.4488 6.69334M35.0488 6.69334L12.9511 20.9689M35.0488 6.69334C32.0764 6.69334 25.8577 9.17037 23.1199 10.4089L12.9511 20.9689M55.3866 20.9689L80.2222 22.9244M55.3866 20.9689L61.4488 6.69334M88.2399 47.9556L89.6088 34.4622L80.2222 22.9244M88.2399 47.9556L80.2222 22.9244M80.2222 22.9244L74.1599 12.3644L61.4488 6.69334M80.2222 22.9244L61.4488 6.69334M12.9511 20.9689L6.10661 45.0222M12.9511 20.9689L4.93328 32.1156L6.10661 45.0222M6.10661 45.0222L2.78217 56.7556L10.9955 68.88M6.10661 45.0222L10.9955 68.88M10.9955 68.88L12.9511 70.3843" stroke="#AE8484" stroke-width="2"/>
<path d="M88.8267 61.449C88.8267 61.881 88.4765 62.2312 88.0445 62.2312C87.6125 62.2312 87.2623 61.881 87.2623 61.449C87.2623 61.017 87.6125 60.6667 88.0445 60.6667C88.4765 60.6667 88.8267 61.017 88.8267 61.449Z" fill="#9A4A53"/>
<path d="M88.0445 63.2312C89.0288 63.2312 89.8267 62.4333 89.8267 61.449C89.8267 60.4647 89.0288 59.6667 88.0445 59.6667C87.0602 59.6667 86.2623 60.4647 86.2623 61.449C86.2623 62.4333 87.0602 63.2312 88.0445 63.2312Z" stroke="#9A4A53" stroke-opacity="0.5" stroke-width="2"/>
<path d="M72.4 81.7866C72.4 82.2186 72.0497 82.5688 71.6177 82.5688C71.1857 82.5688 70.8355 82.2186 70.8355 81.7866C70.8355 81.3546 71.1857 81.0044 71.6177 81.0044C72.0497 81.0044 72.4 81.3546 72.4 81.7866Z" fill="#9A4A53"/>
<path d="M71.6177 83.5688C72.602 83.5688 73.4 82.7709 73.4 81.7866C73.4 80.8023 72.602 80.0044 71.6177 80.0044C70.6334 80.0044 69.8355 80.8023 69.8355 81.7866C69.8355 82.7709 70.6334 83.5688 71.6177 83.5688Z" stroke="#9A4A53" stroke-opacity="0.5" stroke-width="2"/>
<path d="M79.0489 70.4445C79.0489 70.8765 78.6987 71.2267 78.2667 71.2267C77.8346 71.2267 77.4844 70.8765 77.4844 70.4445C77.4844 70.0124 77.8346 69.6622 78.2667 69.6622C78.6987 69.6622 79.0489 70.0124 79.0489 70.4445Z" fill="#9A4A53"/>
<path d="M78.2667 72.2267C79.251 72.2267 80.0489 71.4287 80.0489 70.4445C80.0489 69.4602 79.251 68.6622 78.2667 68.6622C77.2824 68.6622 76.4844 69.4602 76.4844 70.4445C76.4844 71.4287 77.2824 72.2267 78.2667 72.2267Z" stroke="#9A4A53" stroke-opacity="0.5" stroke-width="2"/>
<circle cx="72.4" cy="45.0222" r="1.95556" fill="#9A4A53"/>
<circle cx="72.4" cy="45.0222" r="2.95556" stroke="#9A4A53" stroke-opacity="0.5" stroke-width="2"/>
<circle cx="45.8044" cy="45.0222" r="1.95556" fill="#9A4A53"/>
<circle cx="45.8044" cy="45.0222" r="2.95556" stroke="#9A4A53" stroke-opacity="0.5" stroke-width="2"/>
<circle cx="24.88" cy="29.5734" r="1.36889" fill="#9A4A53"/>
<circle cx="24.88" cy="29.5734" r="2.36889" stroke="#9A4A53" stroke-opacity="0.5" stroke-width="2"/>
<circle cx="35.0488" cy="6.88879" r="1.36889" fill="#9A4A53"/>
<circle cx="35.0488" cy="6.88879" r="2.36889" stroke="#9A4A53" stroke-opacity="0.5" stroke-width="2"/>
<circle cx="88.24" cy="47.5644" r="1.36889" fill="#9A4A53"/>
<circle cx="88.24" cy="47.5644" r="2.36889" stroke="#9A4A53" stroke-opacity="0.5" stroke-width="2"/>
<circle cx="61.2533" cy="6.88879" r="1.36889" fill="#9A4A53"/>
<circle cx="61.2533" cy="6.88879" r="2.36889" stroke="#9A4A53" stroke-opacity="0.5" stroke-width="2"/>
<circle cx="11.5821" cy="68.6844" r="1.36889" fill="#9A4A53"/>
<circle cx="11.5821" cy="68.6844" r="2.36889" stroke="#9A4A53" stroke-opacity="0.5" stroke-width="2"/>
<circle cx="57.5378" cy="84.9155" r="1.95556" fill="#9A4A53"/>
<circle cx="57.5378" cy="84.9155" r="2.95556" stroke="#9A4A53" stroke-opacity="0.5" stroke-width="2"/>
<path d="M5.71551 31.7245C5.71551 32.1565 5.36529 32.5067 4.93328 32.5067C4.50127 32.5067 4.15106 32.1565 4.15106 31.7245C4.15106 31.2925 4.50127 30.9423 4.93328 30.9423C5.36529 30.9423 5.71551 31.2925 5.71551 31.7245Z" fill="#9A4A53"/>
<path d="M4.93328 33.5067C5.91758 33.5067 6.71551 32.7088 6.71551 31.7245C6.71551 30.7402 5.91758 29.9423 4.93328 29.9423C3.94899 29.9423 3.15106 30.7402 3.15106 31.7245C3.15106 32.7088 3.94899 33.5067 4.93328 33.5067Z" stroke="#9A4A53" stroke-opacity="0.5" stroke-width="2"/>
<path d="M89.9999 34.4622C89.9999 34.8942 89.6497 35.2444 89.2177 35.2444C88.7857 35.2444 88.4355 34.8942 88.4355 34.4622C88.4355 34.0301 88.7857 33.6799 89.2177 33.6799C89.6497 33.6799 89.9999 34.0301 89.9999 34.4622Z" fill="#9A4A53"/>
<path d="M89.2177 36.2444C90.202 36.2444 90.9999 35.4464 90.9999 34.4622C90.9999 33.4779 90.202 32.6799 89.2177 32.6799C88.2334 32.6799 87.4355 33.4779 87.4355 34.4622C87.4355 35.4464 88.2334 36.2444 89.2177 36.2444Z" stroke="#9A4A53" stroke-opacity="0.5" stroke-width="2"/>
<path d="M80.6133 23.12C80.6133 23.552 80.2631 23.9022 79.8311 23.9022C79.3991 23.9022 79.0489 23.552 79.0489 23.12C79.0489 22.688 79.3991 22.3378 79.8311 22.3378C80.2631 22.3378 80.6133 22.688 80.6133 23.12Z" fill="#9A4A53"/>
<path d="M79.8311 24.9022C80.8154 24.9022 81.6133 24.1043 81.6133 23.12C81.6133 22.1357 80.8154 21.3378 79.8311 21.3378C78.8468 21.3378 78.0489 22.1357 78.0489 23.12C78.0489 24.1043 78.8468 24.9022 79.8311 24.9022Z" stroke="#9A4A53" stroke-opacity="0.5" stroke-width="2"/>
<path d="M74.7467 12.5599C74.7467 12.9919 74.3965 13.3422 73.9645 13.3422C73.5325 13.3422 73.1823 12.9919 73.1823 12.5599C73.1823 12.1279 73.5325 11.7777 73.9645 11.7777C74.3965 11.7777 74.7467 12.1279 74.7467 12.5599Z" fill="#9A4A53"/>
<path d="M73.9645 14.3422C74.9488 14.3422 75.7467 13.5442 75.7467 12.5599C75.7467 11.5756 74.9488 10.7777 73.9645 10.7777C72.9802 10.7777 72.1823 11.5756 72.1823 12.5599C72.1823 13.5442 72.9802 14.3422 73.9645 14.3422Z" stroke="#9A4A53" stroke-opacity="0.5" stroke-width="2"/>
<path d="M56.3644 20.9689C56.3644 21.5089 55.9267 21.9466 55.3867 21.9466C54.8466 21.9466 54.4089 21.5089 54.4089 20.9689C54.4089 20.4289 54.8466 19.9911 55.3867 19.9911C55.9267 19.9911 56.3644 20.4289 56.3644 20.9689Z" fill="#9A4A53"/>
<path d="M55.3867 22.9466C56.4789 22.9466 57.3644 22.0612 57.3644 20.9689C57.3644 19.8766 56.4789 18.9911 55.3867 18.9911C54.2944 18.9911 53.4089 19.8766 53.4089 20.9689C53.4089 22.0612 54.2944 22.9466 55.3867 22.9466Z" stroke="#9A4A53" stroke-opacity="0.5" stroke-width="2"/>
<path d="M54.0178 70.64C54.0178 71.18 53.58 71.6178 53.04 71.6178C52.5 71.6178 52.0622 71.18 52.0622 70.64C52.0622 70.1 52.5 69.6622 53.04 69.6622C53.58 69.6622 54.0178 70.1 54.0178 70.64Z" fill="#9A4A53"/>
<path d="M53.04 72.6178C54.1323 72.6178 55.0178 71.7323 55.0178 70.64C55.0178 69.5477 54.1323 68.6622 53.04 68.6622C51.9477 68.6622 51.0622 69.5477 51.0622 70.64C51.0622 71.7323 51.9477 72.6178 53.04 72.6178Z" stroke="#9A4A53" stroke-opacity="0.5" stroke-width="2"/>
<path d="M7.0844 45.0221C7.0844 45.4541 6.73419 45.8043 6.30218 45.8043C5.87017 45.8043 5.51996 45.4541 5.51996 45.0221C5.51996 44.5901 5.87017 44.2399 6.30218 44.2399C6.73419 44.2399 7.0844 44.5901 7.0844 45.0221Z" fill="#9A4A53"/>
<path d="M6.30218 46.8043C7.28647 46.8043 8.0844 46.0064 8.0844 45.0221C8.0844 44.0378 7.28647 43.2399 6.30218 43.2399C5.31789 43.2399 4.51996 44.0378 4.51996 45.0221C4.51996 46.0064 5.31789 46.8043 6.30218 46.8043Z" stroke="#9A4A53" stroke-opacity="0.5" stroke-width="2"/>
<path d="M23.9022 59.8844C23.9022 60.3164 23.552 60.6666 23.12 60.6666C22.688 60.6666 22.3378 60.3164 22.3378 59.8844C22.3378 59.4524 22.688 59.1022 23.12 59.1022C23.552 59.1022 23.9022 59.4524 23.9022 59.8844Z" fill="#9A4A53"/>
<path d="M23.12 61.6666C24.1043 61.6666 24.9022 60.8687 24.9022 59.8844C24.9022 58.9001 24.1043 58.1022 23.12 58.1022C22.1357 58.1022 21.3378 58.9001 21.3378 59.8844C21.3378 60.8687 22.1357 61.6666 23.12 61.6666Z" stroke="#9A4A53" stroke-opacity="0.5" stroke-width="2"/>
<path d="M3.56444 56.7556C3.56444 57.1876 3.21423 57.5378 2.78222 57.5378C2.35021 57.5378 2 57.1876 2 56.7556C2 56.3236 2.35021 55.9734 2.78222 55.9734C3.21423 55.9734 3.56444 56.3236 3.56444 56.7556Z" fill="#9A4A53"/>
<path d="M2.78222 58.5378C3.76652 58.5378 4.56444 57.7399 4.56444 56.7556C4.56444 55.7713 3.76652 54.9734 2.78222 54.9734C1.79793 54.9734 1 55.7713 1 56.7556C1 57.7399 1.79793 58.5378 2.78222 58.5378Z" stroke="#9A4A53" stroke-opacity="0.5" stroke-width="2"/>
<path d="M32.1155 84.1334C32.1155 84.5654 31.7653 84.9156 31.3333 84.9156C30.9013 84.9156 30.5511 84.5654 30.5511 84.1334C30.5511 83.7014 30.9013 83.3512 31.3333 83.3512C31.7653 83.3512 32.1155 83.7014 32.1155 84.1334Z" fill="#9A4A53"/>
<path d="M31.3333 85.9156C32.3176 85.9156 33.1155 85.1177 33.1155 84.1334C33.1155 83.1491 32.3176 82.3512 31.3333 82.3512C30.349 82.3512 29.5511 83.1491 29.5511 84.1334C29.5511 85.1177 30.349 85.9156 31.3333 85.9156Z" stroke="#9A4A53" stroke-opacity="0.5" stroke-width="2"/>
<path d="M21.1644 81.0045C21.1644 81.4365 20.8142 81.7867 20.3822 81.7867C19.9502 81.7867 19.6 81.4365 19.6 81.0045C19.6 80.5725 19.9502 80.2223 20.3822 80.2223C20.8142 80.2223 21.1644 80.5725 21.1644 81.0045Z" fill="#9A4A53"/>
<path d="M20.3822 82.7867C21.3665 82.7867 22.1644 81.9888 22.1644 81.0045C22.1644 80.0202 21.3665 79.2223 20.3822 79.2223C19.3979 79.2223 18.6 80.0202 18.6 81.0045C18.6 81.9888 19.3979 82.7867 20.3822 82.7867Z" stroke="#9A4A53" stroke-opacity="0.5" stroke-width="2"/>
<path d="M13.7333 21.1644C13.7333 21.5964 13.3831 21.9466 12.951 21.9466C12.519 21.9466 12.1688 21.5964 12.1688 21.1644C12.1688 20.7324 12.519 20.3822 12.951 20.3822C13.3831 20.3822 13.7333 20.7324 13.7333 21.1644Z" fill="#9A4A53"/>
<path d="M12.951 22.9466C13.9353 22.9466 14.7333 22.1487 14.7333 21.1644C14.7333 20.1801 13.9353 19.3822 12.951 19.3822C11.9668 19.3822 11.1688 20.1801 11.1688 21.1644C11.1688 22.1487 11.9668 22.9466 12.951 22.9466Z" stroke="#9A4A53" stroke-opacity="0.5" stroke-width="2"/>
<path d="M23.9022 10.6045C23.9022 11.0365 23.552 11.3867 23.12 11.3867C22.688 11.3867 22.3378 11.0365 22.3378 10.6045C22.3378 10.1725 22.688 9.82227 23.12 9.82227C23.552 9.82227 23.9022 10.1725 23.9022 10.6045Z" fill="#9A4A53"/>
<path d="M23.12 12.3867C24.1043 12.3867 24.9022 11.5888 24.9022 10.6045C24.9022 9.62019 24.1043 8.82227 23.12 8.82227C22.1357 8.82227 21.3378 9.62019 21.3378 10.6045C21.3378 11.5888 22.1357 12.3867 23.12 12.3867Z" stroke="#9A4A53" stroke-opacity="0.5" stroke-width="2"/>
<path d="M48.5422 2.78222C48.5422 3.21423 48.192 3.56444 47.7599 3.56444C47.3279 3.56444 46.9777 3.21423 46.9777 2.78222C46.9777 2.35021 47.3279 2 47.7599 2C48.192 2 48.5422 2.35021 48.5422 2.78222Z" fill="#9A4A53"/>
<path d="M47.7599 4.56444C48.7442 4.56444 49.5422 3.76652 49.5422 2.78222C49.5422 1.79793 48.7442 1 47.7599 1C46.7757 1 45.9777 1.79793 45.9777 2.78222C45.9777 3.76652 46.7757 4.56444 47.7599 4.56444Z" stroke="#9A4A53" stroke-opacity="0.5" stroke-width="2"/>
</svg>
