<svg width="92" height="91" viewBox="0 0 92 91" fill="none" xmlns="http://www.w3.org/2000/svg">
<path d="M45.6088 45.0222L53.0399 70.64M45.6088 45.0222H72.7911M45.6088 45.0222L24.8799 29.3778M45.6088 45.0222L55.3866 20.9689M45.6088 45.0222L23.1199 60.08M53.0399 70.64L72.7911 45.0222M53.0399 70.64H78.2666M53.0399 70.64L23.1199 60.08M53.0399 70.64L57.5377 84.5244M53.0399 70.64L31.3333 84.5244M72.7911 45.0222L55.3866 20.9689M72.7911 45.0222L78.2666 70.64M72.7911 45.0222L80.2222 22.9244M72.7911 45.0222L88.2399 47.9556M57.5377 84.5244L78.2666 70.64M57.5377 84.5244H31.3333M57.5377 84.5244L45.6088 90L31.3333 84.5244M57.5377 84.5244L72.0088 81.9822L78.2666 70.64M78.2666 70.64L88.2399 47.9556M78.2666 70.64L88.2399 61.4489V47.9556M31.3333 84.5244L23.1199 60.08M31.3333 84.5244L12.9511 70.3843M31.3333 84.5244L20.5777 81.0044C18.0355 77.9407 12.9511 71.5275 12.9511 70.3843M23.1199 60.08L24.8799 29.3778M23.1199 60.08L10.9955 68.88M23.1199 60.08L6.10661 45.0222M24.8799 29.3778L35.0488 6.69334M24.8799 29.3778L55.3866 20.9689M24.8799 29.3778L12.9511 20.9689M24.8799 29.3778L6.10661 45.0222M35.0488 6.69334L55.3866 20.9689M35.0488 6.69334H61.4488M35.0488 6.69334L47.7599 2.58667L61.4488 6.69334M35.0488 6.69334L12.9511 20.9689M35.0488 6.69334C32.0764 6.69334 25.8577 9.17037 23.1199 10.4089L12.9511 20.9689M55.3866 20.9689L80.2222 22.9244M55.3866 20.9689L61.4488 6.69334M88.2399 47.9556L89.6088 34.4622L80.2222 22.9244M88.2399 47.9556L80.2222 22.9244M80.2222 22.9244L74.1599 12.3644L61.4488 6.69334M80.2222 22.9244L61.4488 6.69334M12.9511 20.9689L6.10661 45.0222M12.9511 20.9689L4.93328 32.1156L6.10661 45.0222M6.10661 45.0222L2.78217 56.7556L10.9955 68.88M6.10661 45.0222L10.9955 68.88M10.9955 68.88L12.9511 70.3843" stroke="#AE8484" stroke-width="1.5"/>
<path d="M88.8267 61.449C88.8267 61.881 88.4765 62.2312 88.0445 62.2312C87.6125 62.2312 87.2623 61.881 87.2623 61.449C87.2623 61.017 87.6125 60.6667 88.0445 60.6667C88.4765 60.6667 88.8267 61.017 88.8267 61.449Z" fill="#9A4A53"/>
<path d="M88.0445 62.9812C88.8907 62.9812 89.5767 62.2952 89.5767 61.449C89.5767 60.6027 88.8907 59.9167 88.0445 59.9167C87.1983 59.9167 86.5123 60.6027 86.5123 61.449C86.5123 62.2952 87.1983 62.9812 88.0445 62.9812Z" stroke="#9A4A53" stroke-opacity="0.5" stroke-width="1.5"/>
<path d="M72.4 81.7866C72.4 82.2186 72.0497 82.5688 71.6177 82.5688C71.1857 82.5688 70.8355 82.2186 70.8355 81.7866C70.8355 81.3546 71.1857 81.0044 71.6177 81.0044C72.0497 81.0044 72.4 81.3546 72.4 81.7866Z" fill="#9A4A53"/>
<path d="M71.6177 83.3188C72.464 83.3188 73.15 82.6328 73.15 81.7866C73.15 80.9404 72.464 80.2544 71.6177 80.2544C70.7715 80.2544 70.0855 80.9404 70.0855 81.7866C70.0855 82.6328 70.7715 83.3188 71.6177 83.3188Z" stroke="#9A4A53" stroke-opacity="0.5" stroke-width="1.5"/>
<path d="M79.0489 70.4445C79.0489 70.8765 78.6987 71.2267 78.2667 71.2267C77.8346 71.2267 77.4844 70.8765 77.4844 70.4445C77.4844 70.0124 77.8346 69.6622 78.2667 69.6622C78.6987 69.6622 79.0489 70.0124 79.0489 70.4445Z" fill="#9A4A53"/>
<path d="M78.2667 71.9767C79.1129 71.9767 79.7989 71.2907 79.7989 70.4445C79.7989 69.5982 79.1129 68.9122 78.2667 68.9122C77.4204 68.9122 76.7344 69.5982 76.7344 70.4445C76.7344 71.2907 77.4204 71.9767 78.2667 71.9767Z" stroke="#9A4A53" stroke-opacity="0.5" stroke-width="1.5"/>
<circle cx="72.4" cy="45.0222" r="1.95556" fill="#9A4A53"/>
<circle cx="72.4" cy="45.0222" r="2.70556" stroke="#9A4A53" stroke-opacity="0.5" stroke-width="1.5"/>
<circle cx="45.8044" cy="45.0222" r="1.95556" fill="#9A4A53"/>
<circle cx="45.8044" cy="45.0222" r="2.70556" stroke="#9A4A53" stroke-opacity="0.5" stroke-width="1.5"/>
<circle cx="24.88" cy="29.5734" r="1.36889" fill="#9A4A53"/>
<circle cx="24.88" cy="29.5734" r="2.11889" stroke="#9A4A53" stroke-opacity="0.5" stroke-width="1.5"/>
<circle cx="35.0488" cy="6.88879" r="1.36889" fill="#9A4A53"/>
<circle cx="35.0488" cy="6.88879" r="2.11889" stroke="#9A4A53" stroke-opacity="0.5" stroke-width="1.5"/>
<circle cx="88.24" cy="47.5644" r="1.36889" fill="#9A4A53"/>
<circle cx="88.24" cy="47.5644" r="2.11889" stroke="#9A4A53" stroke-opacity="0.5" stroke-width="1.5"/>
<circle cx="61.2533" cy="6.88879" r="1.36889" fill="#9A4A53"/>
<circle cx="61.2533" cy="6.88879" r="2.11889" stroke="#9A4A53" stroke-opacity="0.5" stroke-width="1.5"/>
<circle cx="11.5821" cy="68.6844" r="1.36889" fill="#9A4A53"/>
<circle cx="11.5821" cy="68.6844" r="2.11889" stroke="#9A4A53" stroke-opacity="0.5" stroke-width="1.5"/>
<circle cx="57.5378" cy="84.9155" r="1.95556" fill="#9A4A53"/>
<circle cx="57.5378" cy="84.9155" r="2.70556" stroke="#9A4A53" stroke-opacity="0.5" stroke-width="1.5"/>
<path d="M5.71551 31.7245C5.71551 32.1565 5.36529 32.5067 4.93328 32.5067C4.50127 32.5067 4.15106 32.1565 4.15106 31.7245C4.15106 31.2925 4.50127 30.9423 4.93328 30.9423C5.36529 30.9423 5.71551 31.2925 5.71551 31.7245Z" fill="#9A4A53"/>
<path d="M4.93328 33.2567C5.77951 33.2567 6.46551 32.5707 6.46551 31.7245C6.46551 30.8783 5.77951 30.1923 4.93328 30.1923C4.08706 30.1923 3.40106 30.8783 3.40106 31.7245C3.40106 32.5707 4.08706 33.2567 4.93328 33.2567Z" stroke="#9A4A53" stroke-opacity="0.5" stroke-width="1.5"/>
<path d="M89.9999 34.4622C89.9999 34.8942 89.6497 35.2444 89.2177 35.2444C88.7857 35.2444 88.4355 34.8942 88.4355 34.4622C88.4355 34.0301 88.7857 33.6799 89.2177 33.6799C89.6497 33.6799 89.9999 34.0301 89.9999 34.4622Z" fill="#9A4A53"/>
<path d="M89.2177 35.9944C90.0639 35.9944 90.7499 35.3084 90.7499 34.4622C90.7499 33.6159 90.0639 32.9299 89.2177 32.9299C88.3715 32.9299 87.6855 33.6159 87.6855 34.4622C87.6855 35.3084 88.3715 35.9944 89.2177 35.9944Z" stroke="#9A4A53" stroke-opacity="0.5" stroke-width="1.5"/>
<path d="M80.6133 23.12C80.6133 23.552 80.2631 23.9022 79.8311 23.9022C79.3991 23.9022 79.0489 23.552 79.0489 23.12C79.0489 22.688 79.3991 22.3378 79.8311 22.3378C80.2631 22.3378 80.6133 22.688 80.6133 23.12Z" fill="#9A4A53"/>
<path d="M79.8311 24.6522C80.6773 24.6522 81.3633 23.9662 81.3633 23.12C81.3633 22.2738 80.6773 21.5878 79.8311 21.5878C78.9849 21.5878 78.2989 22.2738 78.2989 23.12C78.2989 23.9662 78.9849 24.6522 79.8311 24.6522Z" stroke="#9A4A53" stroke-opacity="0.5" stroke-width="1.5"/>
<path d="M74.7467 12.5599C74.7467 12.9919 74.3965 13.3422 73.9645 13.3422C73.5325 13.3422 73.1823 12.9919 73.1823 12.5599C73.1823 12.1279 73.5325 11.7777 73.9645 11.7777C74.3965 11.7777 74.7467 12.1279 74.7467 12.5599Z" fill="#9A4A53"/>
<path d="M73.9645 14.0922C74.8107 14.0922 75.4967 13.4062 75.4967 12.5599C75.4967 11.7137 74.8107 11.0277 73.9645 11.0277C73.1183 11.0277 72.4323 11.7137 72.4323 12.5599C72.4323 13.4062 73.1183 14.0922 73.9645 14.0922Z" stroke="#9A4A53" stroke-opacity="0.5" stroke-width="1.5"/>
<path d="M56.3644 20.9689C56.3644 21.5089 55.9267 21.9466 55.3867 21.9466C54.8466 21.9466 54.4089 21.5089 54.4089 20.9689C54.4089 20.4289 54.8466 19.9911 55.3867 19.9911C55.9267 19.9911 56.3644 20.4289 56.3644 20.9689Z" fill="#9A4A53"/>
<path d="M55.3867 22.6966C56.3409 22.6966 57.1144 21.9231 57.1144 20.9689C57.1144 20.0146 56.3409 19.2411 55.3867 19.2411C54.4324 19.2411 53.6589 20.0146 53.6589 20.9689C53.6589 21.9231 54.4324 22.6966 55.3867 22.6966Z" stroke="#9A4A53" stroke-opacity="0.5" stroke-width="1.5"/>
<path d="M54.0178 70.64C54.0178 71.18 53.58 71.6178 53.04 71.6178C52.5 71.6178 52.0622 71.18 52.0622 70.64C52.0622 70.1 52.5 69.6622 53.04 69.6622C53.58 69.6622 54.0178 70.1 54.0178 70.64Z" fill="#9A4A53"/>
<path d="M53.04 72.3678C53.9942 72.3678 54.7678 71.5942 54.7678 70.64C54.7678 69.6858 53.9942 68.9122 53.04 68.9122C52.0857 68.9122 51.3122 69.6858 51.3122 70.64C51.3122 71.5942 52.0857 72.3678 53.04 72.3678Z" stroke="#9A4A53" stroke-opacity="0.5" stroke-width="1.5"/>
<path d="M7.0844 45.0221C7.0844 45.4541 6.73419 45.8043 6.30218 45.8043C5.87017 45.8043 5.51996 45.4541 5.51996 45.0221C5.51996 44.5901 5.87017 44.2399 6.30218 44.2399C6.73419 44.2399 7.0844 44.5901 7.0844 45.0221Z" fill="#9A4A53"/>
<path d="M6.30218 46.5543C7.1484 46.5543 7.8344 45.8683 7.8344 45.0221C7.8344 44.1759 7.1484 43.4899 6.30218 43.4899C5.45596 43.4899 4.76996 44.1759 4.76996 45.0221C4.76996 45.8683 5.45596 46.5543 6.30218 46.5543Z" stroke="#9A4A53" stroke-opacity="0.5" stroke-width="1.5"/>
<path d="M23.9022 59.8844C23.9022 60.3164 23.552 60.6666 23.12 60.6666C22.688 60.6666 22.3378 60.3164 22.3378 59.8844C22.3378 59.4524 22.688 59.1022 23.12 59.1022C23.552 59.1022 23.9022 59.4524 23.9022 59.8844Z" fill="#9A4A53"/>
<path d="M23.12 61.4166C23.9662 61.4166 24.6522 60.7306 24.6522 59.8844C24.6522 59.0382 23.9662 58.3522 23.12 58.3522C22.2738 58.3522 21.5878 59.0382 21.5878 59.8844C21.5878 60.7306 22.2738 61.4166 23.12 61.4166Z" stroke="#9A4A53" stroke-opacity="0.5" stroke-width="1.5"/>
<path d="M3.56444 56.7556C3.56444 57.1876 3.21423 57.5378 2.78222 57.5378C2.35021 57.5378 2 57.1876 2 56.7556C2 56.3236 2.35021 55.9734 2.78222 55.9734C3.21423 55.9734 3.56444 56.3236 3.56444 56.7556Z" fill="#9A4A53"/>
<path d="M2.78222 58.2878C3.62845 58.2878 4.31444 57.6018 4.31444 56.7556C4.31444 55.9094 3.62845 55.2234 2.78222 55.2234C1.936 55.2234 1.25 55.9094 1.25 56.7556C1.25 57.6018 1.936 58.2878 2.78222 58.2878Z" stroke="#9A4A53" stroke-opacity="0.5" stroke-width="1.5"/>
<path d="M32.1155 84.1334C32.1155 84.5654 31.7653 84.9156 31.3333 84.9156C30.9013 84.9156 30.5511 84.5654 30.5511 84.1334C30.5511 83.7014 30.9013 83.3512 31.3333 83.3512C31.7653 83.3512 32.1155 83.7014 32.1155 84.1334Z" fill="#9A4A53"/>
<path d="M31.3333 85.6656C32.1795 85.6656 32.8655 84.9796 32.8655 84.1334C32.8655 83.2872 32.1795 82.6012 31.3333 82.6012C30.4871 82.6012 29.8011 83.2872 29.8011 84.1334C29.8011 84.9796 30.4871 85.6656 31.3333 85.6656Z" stroke="#9A4A53" stroke-opacity="0.5" stroke-width="1.5"/>
<path d="M21.1644 81.0045C21.1644 81.4365 20.8142 81.7867 20.3822 81.7867C19.9502 81.7867 19.6 81.4365 19.6 81.0045C19.6 80.5725 19.9502 80.2223 20.3822 80.2223C20.8142 80.2223 21.1644 80.5725 21.1644 81.0045Z" fill="#9A4A53"/>
<path d="M20.3822 82.5367C21.2284 82.5367 21.9144 81.8507 21.9144 81.0045C21.9144 80.1583 21.2284 79.4723 20.3822 79.4723C19.536 79.4723 18.85 80.1583 18.85 81.0045C18.85 81.8507 19.536 82.5367 20.3822 82.5367Z" stroke="#9A4A53" stroke-opacity="0.5" stroke-width="1.5"/>
<path d="M13.7333 21.1644C13.7333 21.5964 13.3831 21.9466 12.951 21.9466C12.519 21.9466 12.1688 21.5964 12.1688 21.1644C12.1688 20.7324 12.519 20.3822 12.951 20.3822C13.3831 20.3822 13.7333 20.7324 13.7333 21.1644Z" fill="#9A4A53"/>
<path d="M12.951 22.6966C13.7973 22.6966 14.4833 22.0106 14.4833 21.1644C14.4833 20.3182 13.7973 19.6322 12.951 19.6322C12.1048 19.6322 11.4188 20.3182 11.4188 21.1644C11.4188 22.0106 12.1048 22.6966 12.951 22.6966Z" stroke="#9A4A53" stroke-opacity="0.5" stroke-width="1.5"/>
<path d="M23.9022 10.6045C23.9022 11.0365 23.552 11.3867 23.12 11.3867C22.688 11.3867 22.3378 11.0365 22.3378 10.6045C22.3378 10.1725 22.688 9.82227 23.12 9.82227C23.552 9.82227 23.9022 10.1725 23.9022 10.6045Z" fill="#9A4A53"/>
<path d="M23.12 12.1367C23.9662 12.1367 24.6522 11.4507 24.6522 10.6045C24.6522 9.75826 23.9662 9.07227 23.12 9.07227C22.2738 9.07227 21.5878 9.75826 21.5878 10.6045C21.5878 11.4507 22.2738 12.1367 23.12 12.1367Z" stroke="#9A4A53" stroke-opacity="0.5" stroke-width="1.5"/>
<path d="M48.5422 2.78222C48.5422 3.21423 48.192 3.56444 47.7599 3.56444C47.3279 3.56444 46.9777 3.21423 46.9777 2.78222C46.9777 2.35021 47.3279 2 47.7599 2C48.192 2 48.5422 2.35021 48.5422 2.78222Z" fill="#9A4A53"/>
<path d="M47.7599 4.31444C48.6062 4.31444 49.2922 3.62845 49.2922 2.78222C49.2922 1.936 48.6062 1.25 47.7599 1.25C46.9137 1.25 46.2277 1.936 46.2277 2.78222C46.2277 3.62845 46.9137 4.31444 47.7599 4.31444Z" stroke="#9A4A53" stroke-opacity="0.5" stroke-width="1.5"/>
</svg>
