<svg width="46" height="46" viewBox="0 0 46 46" fill="none" xmlns="http://www.w3.org/2000/svg">
<circle cx="23" cy="23" r="23" fill="#9A4A53"/>
<g clip-path="url(#clip0_159_2)">
<path d="M25.9446 35.8964V35.7801H18.8616V35.8964L18.8628 35.9539C18.8628 36.5981 18.6151 37.2159 18.1743 37.6715C17.7335 38.127 17.1356 38.3829 16.5121 38.3829C15.8887 38.3829 15.2908 38.127 14.8499 37.6715C14.4091 37.2159 14.1614 36.5981 14.1614 35.9539L14.1626 35.8938V35.7801H13.3552C13.0109 35.7801 12.677 35.6584 12.4089 35.4353C12.1408 35.2122 11.9546 34.901 11.8812 34.5534L11.88 34.5432L7.16001 11.4499L3.12759 10.7561C2.74354 10.6759 2.40469 10.4446 2.18262 10.1111C1.96056 9.77752 1.87267 9.36782 1.93752 8.96855C2.00238 8.56927 2.2149 8.21168 2.53018 7.97132C2.84547 7.73096 3.23883 7.62667 3.62716 7.68047L3.61974 7.67919L8.66614 8.54808C9.28071 8.65669 9.76297 9.13713 9.89157 9.75302L9.89281 9.76324L10.7485 13.9339L25.4697 15.2015C25.3789 15.7012 25.3325 16.2085 25.3312 16.7169V16.722C25.3312 17.2357 25.3745 17.7391 25.4586 18.2285L25.4512 18.1774C25.0461 18.3094 24.7022 18.5909 24.4853 18.9683C24.2683 19.3457 24.1936 19.7924 24.2752 20.2231L24.274 20.2116L25.1631 26.8433C25.2175 27.2688 25.4054 27.6419 25.68 27.923C25.9297 28.1799 26.2723 28.3409 26.6519 28.3447H26.6531C26.7372 28.3447 26.8201 28.3357 26.8992 28.3204L26.8905 28.3217C27.3122 28.2078 27.6761 27.9326 27.9087 27.5518C28.1413 27.171 28.2251 26.7131 28.1432 26.2709L28.1444 26.2824L27.6597 22.6765C28.429 23.5036 29.3523 24.1614 30.3741 24.6102C31.3958 25.0591 32.4948 25.2897 33.6051 25.2882C33.6582 25.2882 33.7114 25.2882 33.7633 25.2806L33.8783 25.2742L33.0511 30.2601C33.0313 30.3809 32.9708 30.4907 32.8803 30.5699C32.7898 30.6492 32.6751 30.6929 32.5565 30.6932H14.175L14.5794 32.67H32.0853C32.4749 32.6859 32.8434 32.857 33.1136 33.1473C33.3839 33.4377 33.535 33.8248 33.5353 34.2276C33.5356 34.6305 33.3852 35.0178 33.1153 35.3086C32.8455 35.5994 32.4773 35.7711 32.0878 35.7877H30.646V35.904C30.646 36.5482 30.3983 37.1661 29.9575 37.6216C29.5166 38.0772 28.9187 38.3331 28.2953 38.3331C27.6718 38.3331 27.0739 38.0772 26.6331 37.6216C26.1922 37.1661 25.9446 36.5482 25.9446 35.904V35.8964ZM27.6238 35.8964C27.6241 35.9917 27.6435 36.086 27.6809 36.1732C27.7182 36.2604 27.7727 36.3386 27.8408 36.403C27.909 36.4673 27.9893 36.5163 28.0767 36.5468C28.1641 36.5774 28.2567 36.5889 28.3487 36.5805C28.4406 36.5722 28.5298 36.5442 28.6108 36.4983C28.6917 36.4525 28.7625 36.3898 28.8188 36.3142C28.875 36.2386 28.9154 36.1517 28.9375 36.0591C28.9596 35.9665 28.9628 35.8702 28.9469 35.7762V35.7801H27.6362C27.6296 35.8185 27.6263 35.8574 27.6263 35.8964H27.6238ZM15.8419 35.8964C15.8421 35.9917 15.8616 36.086 15.8989 36.1732C15.9363 36.2604 15.9907 36.3386 16.0589 36.403C16.127 36.4673 16.2073 36.5163 16.2948 36.5468C16.3822 36.5774 16.4748 36.5889 16.5667 36.5805C16.6587 36.5722 16.7479 36.5442 16.8288 36.4983C16.9098 36.4525 16.9806 36.3898 17.0368 36.3142C17.0931 36.2386 17.1335 36.1517 17.1556 36.0591C17.1776 35.9665 17.1809 35.8702 17.165 35.7762V35.7801H15.853C15.8468 35.8176 15.8439 35.8557 15.8444 35.8938V35.8964H15.8419ZM20.6237 18.1672C20.2019 18.2808 19.8378 18.5559 19.6051 18.9368C19.3725 19.3177 19.2888 19.7757 19.371 20.218L19.3698 20.2065L20.2589 26.8382C20.3133 27.2637 20.5012 27.6368 20.7758 27.9179C21.0255 28.1747 21.3681 28.3357 21.7477 28.3396C21.8318 28.3396 21.9159 28.3306 21.995 28.3153L21.9864 28.3166C22.408 28.2027 22.7719 27.9275 23.0045 27.5467C23.2371 27.1659 23.3209 26.708 23.239 26.2657L23.2402 26.2772L22.3511 19.6456C22.2999 19.2363 22.118 18.8563 21.8343 18.5659C21.576 18.2993 21.2273 18.1476 20.8623 18.1429H20.8611C20.7758 18.1429 20.6929 18.1519 20.6125 18.1685L20.6212 18.1672H20.6237ZM15.7195 18.1672C15.2963 18.2803 14.9309 18.556 14.6978 18.9381C14.4648 19.3202 14.3817 19.7799 14.4656 20.2231L14.4644 20.2116L15.3535 26.8433C15.4079 27.2688 15.5958 27.6419 15.8703 27.923C16.1201 28.1799 16.4626 28.3409 16.8423 28.3447H16.8435C16.9276 28.3447 17.0104 28.3357 17.0896 28.3204L17.0809 28.3217C17.5029 28.2084 17.8674 27.9333 18.1002 27.5524C18.3331 27.1715 18.417 26.7133 18.3348 26.2709L18.336 26.2824L17.4457 19.6469C17.3944 19.2376 17.2125 18.8576 16.9288 18.5671C16.6709 18.3001 16.322 18.1483 15.9569 18.1442H15.9557C15.8716 18.1442 15.79 18.1531 15.7108 18.1685L15.7195 18.1672ZM26.5876 16.7259C26.5879 14.801 27.3282 12.9551 28.6456 11.5942C29.298 10.9204 30.0723 10.3859 30.9246 10.0213C31.7768 9.65675 32.6901 9.46919 33.6125 9.46936C34.5348 9.46952 35.4481 9.65742 36.3002 10.0223C37.1523 10.3872 37.9265 10.9219 38.5786 11.596C39.2307 12.2701 39.7479 13.0703 40.1007 13.9509C40.4536 14.8315 40.6351 15.7753 40.6349 16.7284C40.6344 18.6536 39.8938 20.4998 38.576 21.8608C37.2583 23.2218 35.4713 23.9861 33.6082 23.9855C31.745 23.985 29.9584 23.2198 28.6413 21.8581C27.3243 20.4964 26.5846 18.6498 26.5851 16.7246L26.5876 16.7259ZM28.5995 16.7259C28.5995 17.4059 28.7291 18.0794 28.981 18.7077C29.2328 19.336 29.602 19.9069 30.0674 20.3878C30.5328 20.8687 31.0853 21.2502 31.6933 21.5105C32.3014 21.7707 32.9531 21.9047 33.6112 21.9047C34.2694 21.9047 34.9211 21.7707 35.5292 21.5105C36.1372 21.2502 36.6897 20.8687 37.1551 20.3878C37.6205 19.9069 37.9897 19.336 38.2415 18.7077C38.4934 18.0794 38.623 17.4059 38.623 16.7259C38.6232 15.352 38.0952 14.0344 37.1552 13.0628C36.2152 12.0912 34.9402 11.5453 33.6106 11.5451C32.2811 11.5449 31.006 12.0905 30.0657 13.0619C29.1255 14.0332 28.5972 15.3507 28.597 16.7246L28.5995 16.7259ZM32.6059 18.7971V17.7647H31.6068C31.3398 17.7647 31.0838 17.6551 30.895 17.46C30.7063 17.265 30.6002 17.0004 30.6002 16.7246C30.6002 16.4487 30.7063 16.1842 30.895 15.9891C31.0838 15.794 31.3398 15.6845 31.6068 15.6845H32.6059V14.652C32.6059 14.3762 32.712 14.1116 32.9007 13.9166C33.0895 13.7215 33.3455 13.6119 33.6125 13.6119C33.8794 13.6119 34.1355 13.7215 34.3242 13.9166C34.513 14.1116 34.619 14.3762 34.619 14.652V15.6845H35.6182C35.8851 15.6845 36.1412 15.794 36.3299 15.9891C36.5187 16.1842 36.6247 16.4487 36.6247 16.7246C36.6247 17.0004 36.5187 17.265 36.3299 17.46C36.1412 17.6551 35.8851 17.7647 35.6182 17.7647H34.619V18.7959C34.619 19.0717 34.513 19.3363 34.3242 19.5313C34.1355 19.7264 33.8794 19.836 33.6125 19.836C33.3455 19.836 33.0895 19.7264 32.9007 19.5313C32.712 19.3363 32.6059 19.0717 32.6059 18.7959V18.7971Z" fill="white"/>
</g>
<defs>
<clipPath id="clip0_159_2">
<rect width="38.3333" height="30.6667" fill="white" transform="translate(1.91669 7.66663)"/>
</clipPath>
</defs>
</svg>
