<svg width="39" height="31" viewBox="0 0 39 31" fill="none" xmlns="http://www.w3.org/2000/svg">
<path d="M24.0279 28.2297V28.1134H16.9449V28.2297L16.9461 28.2872C16.9461 28.9315 16.6985 29.5493 16.2576 30.0048C15.8168 30.4604 15.2189 30.7163 14.5954 30.7163C13.972 30.7163 13.3741 30.4604 12.9332 30.0048C12.4924 29.5493 12.2447 28.9315 12.2447 28.2872L12.246 28.2272V28.1134H11.4385C11.0942 28.1135 10.7603 27.9918 10.4922 27.7687C10.2241 27.5455 10.0379 27.2343 9.96451 26.8868L9.96327 26.8766L5.24332 3.78329L1.2109 3.08945C0.826856 3.00929 0.488005 2.778 0.265937 2.44445C0.0438699 2.11089 -0.0440208 1.7012 0.0208338 1.30192C0.0856885 0.902641 0.298209 0.54505 0.613496 0.304694C0.928784 0.0643382 1.32214 -0.0399577 1.71047 0.0138411L1.70305 0.0125633L6.74945 0.881452C7.36402 0.990063 7.84628 1.47051 7.97488 2.0864L7.97612 2.09662L8.83182 6.26728L23.5531 7.53484C23.4622 8.03455 23.4158 8.54182 23.4146 9.05029V9.0554C23.4146 9.56906 23.4578 10.0725 23.5419 10.5619L23.5345 10.5108C23.1294 10.6427 22.7855 10.9243 22.5686 11.3017C22.3516 11.679 22.2769 12.1258 22.3585 12.5565L22.3573 12.545L23.2464 19.1767C23.3008 19.6022 23.4888 19.9753 23.7633 20.2564C24.0131 20.5132 24.3556 20.6742 24.7352 20.6781H24.7364C24.8205 20.6781 24.9034 20.6691 24.9825 20.6538L24.9739 20.6551C25.3955 20.5412 25.7594 20.266 25.992 19.8852C26.2246 19.5044 26.3084 19.0465 26.2265 18.6042L26.2277 18.6157L25.743 15.0098C26.5123 15.837 27.4356 16.4948 28.4574 16.9436C29.4791 17.3924 30.5782 17.6231 31.6884 17.6216C31.7415 17.6216 31.7947 17.6216 31.8467 17.614L31.9617 17.6076L31.1344 22.5934C31.1146 22.7143 31.0541 22.824 30.9636 22.9033C30.8731 22.9826 30.7584 23.0262 30.6398 23.0266H12.2583L12.6627 25.0033H30.1686C30.5582 25.0193 30.9267 25.1904 31.1969 25.4807C31.4672 25.771 31.6183 26.1581 31.6186 26.561C31.619 26.9639 31.4685 27.3512 31.1987 27.642C30.9288 27.9328 30.5606 28.1045 30.1711 28.1211H28.7293V28.2374C28.7293 28.8816 28.4816 29.4995 28.0408 29.955C27.5999 30.4105 27.002 30.6664 26.3786 30.6664C25.7551 30.6664 25.1572 30.4105 24.7164 29.955C24.2756 29.4995 24.0279 28.8816 24.0279 28.2374V28.2297ZM25.7071 28.2297C25.7074 28.3251 25.7268 28.4194 25.7642 28.5066C25.8015 28.5938 25.856 28.672 25.9241 28.7363C25.9923 28.8006 26.0726 28.8496 26.16 28.8802C26.2474 28.9108 26.34 28.9222 26.432 28.9139C26.5239 28.9056 26.6132 28.8776 26.6941 28.8317C26.775 28.7859 26.8458 28.7232 26.9021 28.6476C26.9583 28.5719 26.9988 28.4851 27.0208 28.3925C27.0429 28.2999 27.0461 28.2036 27.0303 28.1096V28.1134H25.7195C25.7129 28.1518 25.7096 28.1907 25.7096 28.2297H25.7071ZM13.9252 28.2297C13.9255 28.3251 13.9449 28.4194 13.9822 28.5066C14.0196 28.5938 14.0741 28.672 14.1422 28.7363C14.2103 28.8006 14.2907 28.8496 14.3781 28.8802C14.4655 28.9108 14.5581 28.9222 14.65 28.9139C14.742 28.9056 14.8312 28.8776 14.9121 28.8317C14.9931 28.7859 15.0639 28.7232 15.1201 28.6476C15.1764 28.5719 15.2168 28.4851 15.2389 28.3925C15.2609 28.2999 15.2642 28.2036 15.2483 28.1096V28.1134H13.9363C13.9301 28.151 13.9272 28.1891 13.9277 28.2272V28.2297H13.9252ZM18.707 10.5006C18.2852 10.6142 17.9211 10.8893 17.6884 11.2702C17.4558 11.651 17.3721 12.1091 17.4543 12.5514L17.4531 12.5399L18.3422 19.1716C18.3966 19.5971 18.5846 19.9702 18.8591 20.2513C19.1089 20.5081 19.4514 20.6691 19.831 20.6729C19.9151 20.6729 19.9992 20.664 20.0783 20.6487L20.0697 20.6499C20.4913 20.5361 20.8552 20.2609 21.0878 19.8801C21.3204 19.4993 21.4042 19.0414 21.3223 18.5991L21.3235 18.6106L20.4345 11.979C20.3832 11.5697 20.2013 11.1897 19.9176 10.8992C19.6593 10.6327 19.3106 10.4809 18.9456 10.4763H18.9444C18.8591 10.4763 18.7762 10.4852 18.6959 10.5018L18.7045 10.5006H18.707ZM13.8028 10.5006C13.3796 10.6136 13.0142 10.8894 12.7811 11.2715C12.5481 11.6536 12.465 12.1132 12.5489 12.5565L12.5477 12.545L13.4368 19.1767C13.4912 19.6022 13.6791 19.9753 13.9536 20.2564C14.2034 20.5132 14.546 20.6742 14.9256 20.6781H14.9268C15.0109 20.6781 15.0938 20.6691 15.1729 20.6538L15.1642 20.6551C15.5862 20.5417 15.9507 20.2667 16.1836 19.8858C16.4164 19.5049 16.5003 19.0467 16.4181 18.6042L16.4193 18.6157L15.529 11.9802C15.4777 11.5709 15.2959 11.191 15.0121 10.9005C14.7542 10.6335 14.4053 10.4817 14.0402 10.4776H14.039C13.9549 10.4776 13.8733 10.4865 13.7941 10.5018L13.8028 10.5006ZM24.6709 9.05923C24.6712 7.13435 25.4115 5.28844 26.729 3.92758C27.3813 3.25375 28.1557 2.71929 29.0079 2.35471C29.8601 1.99012 30.7734 1.80256 31.6958 1.80273C32.6182 1.8029 33.5315 1.99079 34.3835 2.35568C35.2356 2.72058 36.0098 3.25532 36.6619 3.92939C37.314 4.60345 37.8312 5.40364 38.184 6.28426C38.5369 7.16487 38.7184 8.10868 38.7182 9.06178C38.7177 10.987 37.9771 12.8332 36.6594 14.1942C35.3416 15.5551 33.5546 16.3194 31.6915 16.3189C29.8284 16.3184 28.0417 15.5531 26.7247 14.1914C25.4076 12.8297 24.6679 10.9832 24.6684 9.05795L24.6709 9.05923ZM26.6828 9.05923C26.6828 9.73932 26.8124 10.4128 27.0643 11.0411C27.3161 11.6694 27.6853 12.2403 28.1507 12.7212C28.6161 13.2021 29.1686 13.5836 29.7766 13.8438C30.3847 14.1041 31.0364 14.2381 31.6946 14.2381C32.3527 14.2381 33.0044 14.1041 33.6125 13.8438C34.2205 13.5836 34.773 13.2021 35.2384 12.7212C35.7038 12.2403 36.073 11.6694 36.3248 11.0411C36.5767 10.4128 36.7063 9.73932 36.7063 9.05923C36.7065 7.68538 36.1785 6.36773 35.2385 5.39615C34.2985 4.42457 33.0235 3.87865 31.6939 3.87848C30.3644 3.87831 29.0893 4.42391 28.149 5.39525C27.2088 6.36659 26.6805 7.6841 26.6803 9.05795L26.6828 9.05923ZM30.6892 11.1305V10.0981H29.6901C29.4231 10.0981 29.1671 9.98848 28.9784 9.79342C28.7896 9.59836 28.6835 9.33381 28.6835 9.05795C28.6835 8.7821 28.7896 8.51754 28.9784 8.32248C29.1671 8.12742 29.4231 8.01784 29.6901 8.01784H30.6892V6.9854C30.6892 6.70954 30.7953 6.44499 30.9841 6.24993C31.1728 6.05487 31.4288 5.94528 31.6958 5.94528C31.9628 5.94528 32.2188 6.05487 32.4075 6.24993C32.5963 6.44499 32.7024 6.70954 32.7024 6.9854V8.01784H33.7015C33.9685 8.01784 34.2245 8.12742 34.4132 8.32248C34.602 8.51754 34.7081 8.7821 34.7081 9.05795C34.7081 9.33381 34.602 9.59836 34.4132 9.79342C34.2245 9.98848 33.9685 10.0981 33.7015 10.0981H32.7024V11.1292C32.7024 11.4051 32.5963 11.6696 32.4075 11.8647C32.2188 12.0598 31.9628 12.1693 31.6958 12.1693C31.4288 12.1693 31.1728 12.0598 30.9841 11.8647C30.7953 11.6696 30.6892 11.4051 30.6892 11.1292V11.1305Z" fill="white"/>
</svg>
