<svg width="46" height="46" viewBox="0 0 46 46" fill="none" xmlns="http://www.w3.org/2000/svg">
<circle cx="23" cy="23" r="23" fill="#AFDBDB"/>
<g clip-path="url(#clip0_159_6)">
<path d="M37.192 15.4076C37.3383 15.2579 37.4205 15.055 37.4205 14.8433C37.4205 14.6317 37.3383 14.4287 37.192 14.279C37.0458 14.1294 36.8474 14.0453 36.6406 14.0453C36.4337 14.0453 36.2354 14.1294 36.0891 14.279L31.9672 18.4984L30.1819 16.6701C30.1095 16.596 30.0235 16.5372 29.9289 16.4971C29.8343 16.457 29.7329 16.4363 29.6305 16.4363C29.5281 16.4363 29.4266 16.457 29.332 16.4971C29.2374 16.5372 29.1514 16.596 29.079 16.6701C29.0066 16.7442 28.9491 16.8322 28.91 16.929C28.8708 17.0258 28.8506 17.1296 28.8506 17.2344C28.8506 17.3392 28.8708 17.4429 28.91 17.5398C28.9491 17.6366 29.0066 17.7245 29.079 17.7987L31.4157 20.1897C31.4881 20.2639 31.574 20.3228 31.6686 20.363C31.7633 20.4032 31.8647 20.4239 31.9672 20.4239C32.0696 20.4239 32.1711 20.4032 32.2657 20.363C32.3603 20.3228 32.4463 20.2639 32.5186 20.1897L37.192 15.4076V15.4076Z" fill="white"/>
<path d="M25.7057 35.8509V35.7348H18.6931V35.8509L18.6943 35.9083C18.6943 36.5515 18.4491 37.1683 18.0126 37.6231C17.5762 38.0779 16.9842 38.3334 16.367 38.3334C15.7497 38.3334 15.1577 38.0779 14.7213 37.6231C14.2848 37.1683 14.0396 36.5515 14.0396 35.9083L14.0409 35.8483V35.7348H13.2414C12.9006 35.7348 12.57 35.6133 12.3045 35.3906C12.0391 35.1678 11.8547 34.8571 11.7821 34.5101L11.7809 34.4999L7.10783 11.4439L3.11549 10.7512C2.73526 10.6712 2.39978 10.4403 2.17992 10.1072C1.96006 9.77423 1.87304 9.3652 1.93725 8.96657C2.00146 8.56793 2.21187 8.21092 2.52402 7.97095C2.83618 7.73098 3.22563 7.62685 3.6101 7.68057L3.60275 7.67929L8.59898 8.54678C9.20745 8.65521 9.68491 9.13488 9.81223 9.74977L9.81346 9.75998L10.6607 13.9239L25.2356 15.1894C25.1456 15.6883 25.0997 16.1948 25.0984 16.7024V16.7075C25.0984 17.2204 25.1413 17.723 25.2245 18.2116L25.2172 18.1606C24.8161 18.2923 24.4756 18.5734 24.2609 18.9501C24.0461 19.3269 23.972 19.7729 24.0529 20.203L24.0517 20.1915L24.9319 26.8124C24.9858 27.2373 25.1719 27.6098 25.4437 27.8904C25.691 28.1468 26.0301 28.3076 26.4059 28.3114H26.4072C26.4904 28.3114 26.5725 28.3025 26.6508 28.2872L26.6422 28.2884C27.0597 28.1748 27.42 27.9 27.6503 27.5198C27.8805 27.1396 27.9635 26.6825 27.8824 26.2409L27.8836 26.2524L27.4037 22.6523C28.1654 23.4781 29.0795 24.1349 30.0911 24.583C31.1027 25.0311 32.1908 25.2614 33.29 25.2599C33.3426 25.2599 33.3953 25.2599 33.4467 25.2522L33.5606 25.2459L32.7415 30.2237C32.7219 30.3444 32.662 30.4539 32.5724 30.5331C32.4828 30.6122 32.3693 30.6558 32.2518 30.6562H14.0531L14.4534 32.6297H31.7854C32.1711 32.6456 32.5359 32.8164 32.8035 33.1063C33.071 33.3962 33.2206 33.7826 33.221 34.1848C33.2213 34.587 33.0723 34.9738 32.8052 35.2641C32.538 35.5544 32.1735 35.7258 31.7878 35.7424H30.3603V35.8585C30.3603 36.5017 30.1151 37.1186 29.6787 37.5734C29.2422 38.0282 28.6502 38.2837 28.033 38.2837C27.4158 38.2837 26.8238 38.0282 26.3873 37.5734C25.9509 37.1186 25.7057 36.5017 25.7057 35.8585V35.8509ZM27.3682 35.8509C27.3685 35.9461 27.3877 36.0402 27.4247 36.1273C27.4617 36.2143 27.5156 36.2924 27.5831 36.3567C27.6505 36.4209 27.73 36.4698 27.8166 36.5003C27.9031 36.5308 27.9948 36.5423 28.0858 36.5339C28.1769 36.5256 28.2652 36.4977 28.3454 36.4519C28.4255 36.4061 28.4956 36.3435 28.5513 36.268C28.607 36.1925 28.647 36.1058 28.6688 36.0134C28.6907 35.9209 28.6939 35.8248 28.6782 35.731V35.7348H27.3805C27.3739 35.7731 27.3706 35.812 27.3707 35.8509H27.3682ZM15.7034 35.8509C15.7037 35.9461 15.7229 36.0402 15.7599 36.1273C15.7968 36.2143 15.8508 36.2924 15.9182 36.3567C15.9857 36.4209 16.0652 36.4698 16.1518 36.5003C16.2383 36.5308 16.33 36.5423 16.421 36.5339C16.5121 36.5256 16.6004 36.4977 16.6805 36.4519C16.7607 36.4061 16.8308 36.3435 16.8865 36.268C16.9421 36.1925 16.9822 36.1058 17.004 36.0134C17.0259 35.9209 17.0291 35.8248 17.0134 35.731V35.7348H15.7144C15.7083 35.7723 15.7054 35.8103 15.7059 35.8483V35.8509H15.7034ZM20.4376 18.1503C20.0201 18.2638 19.6595 18.5385 19.4292 18.9187C19.1989 19.299 19.1161 19.7563 19.1975 20.1979L19.1962 20.1864L20.0765 26.8073C20.1304 27.2322 20.3164 27.6047 20.5882 27.8853C20.8355 28.1417 21.1747 28.3025 21.5505 28.3063C21.6338 28.3063 21.717 28.2974 21.7954 28.2821L21.7868 28.2833C22.2042 28.1697 22.5646 27.8949 22.7948 27.5147C23.0251 27.1345 23.1081 26.6774 23.027 26.2358L23.0282 26.2473L22.148 19.6263C22.0972 19.2177 21.9171 18.8384 21.6362 18.5484C21.3805 18.2823 21.0353 18.1308 20.6739 18.1261H20.6727C20.5882 18.1261 20.5062 18.135 20.4266 18.1516L20.4352 18.1503H20.4376ZM15.5822 18.1503C15.1632 18.2632 14.8014 18.5385 14.5707 18.92C14.34 19.3015 14.2578 19.7604 14.3408 20.203L14.3396 20.1915L15.2198 26.8124C15.2737 27.2373 15.4598 27.6098 15.7316 27.8904C15.9789 28.1468 16.318 28.3076 16.6938 28.3114H16.6951C16.7783 28.3114 16.8603 28.3025 16.9387 28.2872L16.9301 28.2884C17.3479 28.1753 17.7087 27.9007 17.9393 27.5204C18.1699 27.1401 18.2529 26.6827 18.1715 26.2409L18.1728 26.2524L17.2913 19.6276C17.2405 19.219 17.0604 18.8397 16.7795 18.5496C16.5242 18.2831 16.1787 18.1315 15.8173 18.1274H15.816C15.7328 18.1274 15.652 18.1363 15.5736 18.1516L15.5822 18.1503ZM26.3423 16.7113C26.3426 14.7896 27.0756 12.9466 28.3799 11.588C29.0257 10.9152 29.7924 10.3816 30.6361 10.0177C31.4799 9.65366 32.3842 9.4664 33.2974 9.46657C34.2105 9.46673 35.1148 9.65432 35.9584 10.0186C36.802 10.3829 37.5685 10.9168 38.2141 11.5898C38.8597 12.2628 39.3718 13.0617 39.7211 13.9409C40.0704 14.82 40.2501 15.7623 40.25 16.7139C40.2495 18.636 39.5162 20.4792 38.2116 21.838C36.9069 23.1968 35.1377 23.9598 33.2931 23.9593C31.4485 23.9588 29.6796 23.1948 28.3756 21.8353C27.0716 20.4758 26.3394 18.6322 26.3398 16.7101L26.3423 16.7113ZM28.3342 16.7113C28.3342 17.3903 28.4625 18.0627 28.7119 18.69C28.9612 19.3173 29.3267 19.8873 29.7875 20.3674C30.2483 20.8475 30.7953 21.2284 31.3973 21.4882C31.9993 21.7481 32.6445 21.8818 33.2961 21.8818C33.9477 21.8818 34.593 21.7481 35.195 21.4882C35.797 21.2284 36.344 20.8475 36.8048 20.3674C37.2655 19.8873 37.631 19.3173 37.8804 18.69C38.1297 18.0627 38.2581 17.3903 38.2581 16.7113C38.2582 15.3397 37.7355 14.0242 36.8048 13.0542C35.8742 12.0842 34.6118 11.5391 33.2955 11.539C31.9792 11.5388 30.7167 12.0835 29.7858 13.0533C28.8549 14.0231 28.3319 15.3384 28.3317 16.7101L28.3342 16.7113Z" fill="white"/>
</g>
<defs>
<clipPath id="clip0_159_6">
<rect width="38.3333" height="30.6667" fill="white" transform="translate(1.91663 7.66675)"/>
</clipPath>
</defs>
</svg>
