<svg width="41" height="41" viewBox="0 0 41 41" fill="none" xmlns="http://www.w3.org/2000/svg">
<path d="M1.14615 1.14615C1.88026 0.412272 2.87578 0 3.91381 0C4.95183 0 5.94736 0.412272 6.68146 1.14615L20.5236 14.9883L34.3658 1.14615C35.1041 0.43307 36.093 0.0384964 37.1194 0.0474156C38.1458 0.0563348 39.1276 0.468034 39.8534 1.19384C40.5792 1.91965 40.9909 2.90149 40.9999 3.92789C41.0088 4.9543 40.6142 5.94315 39.9011 6.68146L26.0589 20.5236L39.9011 34.3658C40.6142 35.1041 41.0088 36.093 40.9999 37.1194C40.9909 38.1458 40.5792 39.1276 39.8534 39.8534C39.1276 40.5792 38.1458 40.9909 37.1194 40.9999C36.093 41.0088 35.1041 40.6142 34.3658 39.9011L20.5236 26.0589L6.68146 39.9011C5.94315 40.6142 4.9543 41.0088 3.92789 40.9999C2.90149 40.9909 1.91965 40.5792 1.19384 39.8534C0.468034 39.1276 0.0563348 38.1458 0.0474156 37.1194C0.0384964 36.093 0.43307 35.1041 1.14615 34.3658L14.9883 20.5236L1.14615 6.68146C0.412272 5.94736 0 4.95183 0 3.91381C0 2.87578 0.412272 1.88026 1.14615 1.14615V1.14615Z" fill="#9A4A53"/>
</svg>
