<svg width="52" height="52" viewBox="0 0 52 52" fill="none" xmlns="http://www.w3.org/2000/svg">
<path d="M29.9 19.5C29.9 20.5343 29.4891 21.5263 28.7577 22.2577C28.0264 22.9891 27.0344 23.4 26 23.4C24.9657 23.4 23.9737 22.9891 23.2423 22.2577C22.5109 21.5263 22.1 20.5343 22.1 19.5C22.1 18.4656 22.5109 17.4736 23.2423 16.7422C23.9737 16.0108 24.9657 15.6 26 15.6C27.0344 15.6 28.0264 16.0108 28.7577 16.7422C29.4891 17.4736 29.9 18.4656 29.9 19.5V19.5ZM18.2 27.95V28.6C18.2 29.9791 18.7479 31.3017 19.7231 32.2769C20.6983 33.2521 22.0209 33.8 23.4 33.8H28.6C29.9792 33.8 31.3018 33.2521 32.277 32.2769C33.2522 31.3017 33.8 29.9791 33.8 28.6V27.95C33.8 27.4328 33.5946 26.9368 33.2289 26.5711C32.8632 26.2054 32.3672 26 31.85 26H20.15C19.6329 26 19.1369 26.2054 18.7712 26.5711C18.4055 26.9368 18.2 27.4328 18.2 27.95V27.95ZM10.4 10.4V41.5999C10.4 42.9791 10.9479 44.3017 11.9231 45.2769C12.8983 46.2521 14.2209 46.7999 15.6 46.7999H40.3C40.6448 46.7999 40.9755 46.663 41.2193 46.4192C41.4631 46.1754 41.6 45.8447 41.6 45.4999C41.6 45.1552 41.4631 44.8245 41.2193 44.5807C40.9755 44.3369 40.6448 44.1999 40.3 44.1999H15.6C14.9105 44.1999 14.2491 43.926 13.7615 43.4384C13.274 42.9508 13 42.2895 13 41.5999H39C39.6896 41.5999 40.3509 41.326 40.8385 40.8384C41.3261 40.3508 41.6 39.6895 41.6 38.9999V10.4C41.6 9.02083 41.0522 7.69818 40.077 6.723C39.1018 5.74781 37.7792 5.19995 36.4 5.19995H15.6C14.2209 5.19995 12.8983 5.74781 11.9231 6.723C10.9479 7.69818 10.4 9.02083 10.4 10.4V10.4ZM36.4 7.79995C37.0896 7.79995 37.7509 8.07388 38.2385 8.56147C38.7261 9.04907 39 9.71039 39 10.4V38.9999H13V10.4C13 9.71039 13.274 9.04907 13.7615 8.56147C14.2491 8.07388 14.9105 7.79995 15.6 7.79995H36.4Z" fill="#9A4A53"/>
</svg>
