<svg width="53" height="53" viewBox="0 0 53 53" fill="none" xmlns="http://www.w3.org/2000/svg">
<path d="M32.5818 22.0833C34.715 22.0833 36.4464 23.8147 36.4464 25.9479V33.125H36.4375V33.6771C36.4375 34.1164 36.263 34.5376 35.9524 34.8482C35.6418 35.1588 35.2205 35.3333 34.7813 35.3333C34.342 35.3333 33.9207 35.1588 33.6101 34.8482C33.2995 34.5376 33.125 34.1164 33.125 33.6771V28.7083H33.1339V25.9479C33.1339 25.8015 33.0757 25.6611 32.9722 25.5575C32.8686 25.454 32.7282 25.3958 32.5818 25.3958H20.4315C20.2851 25.3958 20.1447 25.454 20.0411 25.5575C19.9376 25.6611 19.8794 25.8015 19.8794 25.9479V33.125H19.875V33.6771C19.875 34.1164 19.7005 34.5376 19.3899 34.8482C19.0793 35.1588 18.658 35.3333 18.2188 35.3333C17.7795 35.3333 17.3582 35.1588 17.0476 34.8482C16.737 34.5376 16.5625 34.1164 16.5625 33.6771V28.7083H16.5669V25.9479C16.5669 23.8147 18.2961 22.0833 20.4315 22.0833H32.5818V22.0833ZM45.2709 25.9479V33.6771C45.2709 34.1164 45.4453 34.5376 45.756 34.8482C46.0666 35.1588 46.4878 35.3333 46.9271 35.3333C47.3664 35.3333 47.7876 35.1588 48.0982 34.8482C48.4089 34.5376 48.5834 34.1164 48.5834 33.6771V25.9479C48.5834 24.923 48.1762 23.94 47.4514 23.2152C46.7267 22.4905 45.7437 22.0833 44.7188 22.0833H37.2656C38.0231 22.9998 38.5178 24.1415 38.6304 25.3958H44.7188C44.8652 25.3958 45.0056 25.454 45.1092 25.5575C45.2127 25.6611 45.2709 25.8015 45.2709 25.9479ZM4.41669 33.6771C4.41669 34.1164 4.59118 34.5376 4.90179 34.8482C5.2124 35.1588 5.63367 35.3333 6.07294 35.3333C6.5122 35.3333 6.93348 35.1588 7.24408 34.8482C7.55469 34.5376 7.72919 34.1164 7.72919 33.6771V25.9479C7.72919 25.8015 7.78735 25.6611 7.89089 25.5575C7.99442 25.454 8.13485 25.3958 8.28127 25.3958H14.3829C14.4927 24.1792 14.9685 23.0243 15.7476 22.0833H8.28127C7.25632 22.0833 6.27335 22.4905 5.5486 23.2152C4.82385 23.94 4.41669 24.923 4.41669 25.9479V33.6771ZM26.5 6.625C28.2571 6.625 29.9422 7.32299 31.1846 8.56542C32.427 9.80785 33.125 11.4929 33.125 13.25C33.125 15.0071 32.427 16.6922 31.1846 17.9346C29.9422 19.177 28.2571 19.875 26.5 19.875C24.743 19.875 23.0579 19.177 21.8154 17.9346C20.573 16.6922 19.875 15.0071 19.875 13.25C19.875 11.4929 20.573 9.80785 21.8154 8.56542C23.0579 7.32299 24.743 6.625 26.5 6.625V6.625ZM26.5 9.9375C25.6215 9.9375 24.7789 10.2865 24.1577 10.9077C23.5365 11.5289 23.1875 12.3715 23.1875 13.25C23.1875 14.1285 23.5365 14.9711 24.1577 15.5923C24.7789 16.2135 25.6215 16.5625 26.5 16.5625C27.3785 16.5625 28.2211 16.2135 28.8423 15.5923C29.4635 14.9711 29.8125 14.1285 29.8125 13.25C29.8125 12.3715 29.4635 11.5289 28.8423 10.9077C28.2211 10.2865 27.3785 9.9375 26.5 9.9375ZM40.8542 8.83333C42.3184 8.83333 43.7226 9.41499 44.758 10.4503C45.7934 11.4857 46.375 12.89 46.375 14.3542C46.375 15.8184 45.7934 17.2226 44.758 18.258C43.7226 19.2933 42.3184 19.875 40.8542 19.875C39.39 19.875 37.9857 19.2933 36.9504 18.258C35.915 17.2226 35.3334 15.8184 35.3334 14.3542C35.3334 12.89 35.915 11.4857 36.9504 10.4503C37.9857 9.41499 39.39 8.83333 40.8542 8.83333ZM40.8542 12.1458C40.2685 12.1458 39.7068 12.3785 39.2927 12.7926C38.8785 13.2068 38.6459 13.7685 38.6459 14.3542C38.6459 14.9399 38.8785 15.5016 39.2927 15.9157C39.7068 16.3298 40.2685 16.5625 40.8542 16.5625C41.4399 16.5625 42.0016 16.3298 42.4157 15.9157C42.8299 15.5016 43.0625 14.9399 43.0625 14.3542C43.0625 13.7685 42.8299 13.2068 42.4157 12.7926C42.0016 12.3785 41.4399 12.1458 40.8542 12.1458ZM12.1459 8.83333C13.6101 8.83333 15.0143 9.41499 16.0497 10.4503C17.085 11.4857 17.6667 12.89 17.6667 14.3542C17.6667 15.8184 17.085 17.2226 16.0497 18.258C15.0143 19.2933 13.6101 19.875 12.1459 19.875C10.6816 19.875 9.27739 19.2933 8.24203 18.258C7.20668 17.2226 6.62502 15.8184 6.62502 14.3542C6.62502 12.89 7.20668 11.4857 8.24203 10.4503C9.27739 9.41499 10.6816 8.83333 12.1459 8.83333V8.83333ZM12.1459 12.1458C11.5602 12.1458 10.9985 12.3785 10.5843 12.7926C10.1702 13.2068 9.93752 13.7685 9.93752 14.3542C9.93752 14.9399 10.1702 15.5016 10.5843 15.9157C10.9985 16.3298 11.5602 16.5625 12.1459 16.5625C12.7315 16.5625 13.2932 16.3298 13.7074 15.9157C14.1215 15.5016 14.3542 14.9399 14.3542 14.3542C14.3542 13.7685 14.1215 13.2068 13.7074 12.7926C13.2932 12.3785 12.7315 12.1458 12.1459 12.1458ZM6.07294 37.5417C5.63367 37.5417 5.2124 37.7162 4.90179 38.0268C4.59118 38.3374 4.41669 38.7587 4.41669 39.1979V40.3021C4.41669 42.4984 5.28917 44.6048 6.84221 46.1578C8.39524 47.7109 10.5016 48.5833 12.6979 48.5833H40.3021C42.4984 48.5833 44.6048 47.7109 46.1578 46.1578C47.7109 44.6048 48.5834 42.4984 48.5834 40.3021V39.1979C48.5834 38.7587 48.4089 38.3374 48.0982 38.0268C47.7876 37.7162 47.3664 37.5417 46.9271 37.5417H6.07294ZM12.6979 45.2708C11.4758 45.2708 10.2965 44.8203 9.38553 44.0055C8.47459 43.1907 7.8959 42.0688 7.7601 40.8542H45.2399C45.1041 42.0688 44.5255 43.1907 43.6145 44.0055C42.7036 44.8203 41.5243 45.2708 40.3021 45.2708H12.6979Z" fill="#9A4A53"/>
</svg>
