<svg width="60" height="60" viewBox="0 0 60 60" fill="none" xmlns="http://www.w3.org/2000/svg">
<path fill-rule="evenodd" clip-rule="evenodd" d="M40.8127 37.2475L54.2627 50.6975C54.7355 51.1705 55.0009 51.812 55.0007 52.4809C55.0004 53.1497 54.7345 53.791 54.2615 54.2637C53.7884 54.7365 53.1469 55.0019 52.4781 55.0017C51.8093 55.0015 51.168 54.7355 50.6952 54.2625L37.2452 40.8125C33.2245 43.9267 28.1684 45.3922 23.1055 44.9108C18.0427 44.4295 13.3533 42.0375 9.99142 38.2215C6.62954 34.4055 4.84769 29.452 5.00834 24.3688C5.169 19.2857 7.26009 14.4546 10.8562 10.8585C14.4524 7.26235 19.2834 5.17125 24.3666 5.0106C29.4497 4.84995 34.4032 6.6318 38.2192 9.99368C42.0353 13.3556 44.4273 18.0449 44.9086 23.1078C45.3899 28.1707 43.9244 33.2267 40.8102 37.2475H40.8127ZM25.0002 40C28.9785 40 32.7938 38.4196 35.6068 35.6066C38.4199 32.7935 40.0002 28.9782 40.0002 25C40.0002 21.0217 38.4199 17.2064 35.6068 14.3934C32.7938 11.5803 28.9785 9.99997 25.0002 9.99997C21.022 9.99997 17.2067 11.5803 14.3936 14.3934C11.5806 17.2064 10.0002 21.0217 10.0002 25C10.0002 28.9782 11.5806 32.7935 14.3936 35.6066C17.2067 38.4196 21.022 40 25.0002 40V40Z" fill="#9A4A53"/>
</svg>
