<svg width="69" height="69" viewBox="0 0 69 69" fill="none" xmlns="http://www.w3.org/2000/svg">
<path d="M59.6735 15.3669C59.4031 15.0558 59.0692 14.8064 58.6943 14.6353C58.3194 14.4642 57.9121 14.3754 57.5 14.375H17.7704L17.2097 11.0285C17.0981 10.3572 16.752 9.74722 16.233 9.30712C15.7139 8.86702 15.0555 8.62531 14.375 8.625H7.90625C7.14375 8.625 6.41248 8.9279 5.87332 9.46707C5.33415 10.0062 5.03125 10.7375 5.03125 11.5C5.03125 12.2625 5.33415 12.9938 5.87332 13.5329C6.41248 14.0721 7.14375 14.375 7.90625 14.375H11.9399L17.2874 46.4715L17.4167 46.828L17.572 47.2621L17.917 47.7768L18.1901 48.0988L18.745 48.4725L19.067 48.6594C19.4014 48.7991 19.7597 48.8724 20.1221 48.875H51.75C52.5125 48.875 53.2438 48.5721 53.7829 48.0329C54.3221 47.4938 54.625 46.7625 54.625 46C54.625 45.2375 54.3221 44.5062 53.7829 43.9671C53.2438 43.4279 52.5125 43.125 51.75 43.125H22.5601L22.0829 40.25H54.625C55.3168 40.2501 55.9855 40.0007 56.5083 39.5476C57.0311 39.0945 57.373 38.4681 57.4712 37.7833L60.3462 17.6583C60.4045 17.2504 60.3745 16.8348 60.2585 16.4396C60.1424 16.0443 59.943 15.6785 59.6735 15.3669V15.3669ZM54.1851 20.125L53.3657 25.875H43.125V20.125H54.1851ZM40.25 20.125V25.875H31.625V20.125H40.25ZM40.25 28.75V34.5H31.625V28.75H40.25ZM28.75 20.125V25.875H20.125L19.6995 25.9613L18.7277 20.125H28.75ZM20.1652 28.75H28.75V34.5H21.1226L20.1652 28.75V28.75ZM43.125 34.5V28.75H52.9517L52.1324 34.5H43.125Z" fill="#9A4A53"/>
<path d="M24.4375 60.375C26.8192 60.375 28.75 58.4442 28.75 56.0625C28.75 53.6808 26.8192 51.75 24.4375 51.75C22.0558 51.75 20.125 53.6808 20.125 56.0625C20.125 58.4442 22.0558 60.375 24.4375 60.375Z" fill="#9A4A53"/>
<path d="M50.3125 60.375C52.6942 60.375 54.625 58.4442 54.625 56.0625C54.625 53.6808 52.6942 51.75 50.3125 51.75C47.9308 51.75 46 53.6808 46 56.0625C46 58.4442 47.9308 60.375 50.3125 60.375Z" fill="#9A4A53"/>
</svg>
